<?xml version="1.0" encoding="utf-8"?>
<!-- Generator: Adobe Illustrator 26.5.0, SVG Export Plug-In . SVG Version: 6.00 Build 0)  -->
<svg version="1.1" id="Layer_1" xmlns="http://www.w3.org/2000/svg" xmlns:xlink="http://www.w3.org/1999/xlink" x="0px" y="0px"
	 viewBox="0 0 1080 1080" style="enable-background:new 0 0 1080 1080;" xml:space="preserve">
<style type="text/css">
	.st0{fill:url(#SVGID_1_);}
	.st1{opacity:0.84;}
	.st2{fill:#7EE89E;}
	.st3{opacity:0.24;fill:#FFFFFF;}
	.st4{fill:#91EDA5;}
	.st5{opacity:0.24;fill:#7EE89E;}
	.st6{fill:#C0F2CD;}
	.st7{fill:url(#SVGID_00000014635824442374786350000011541759756848949391_);}
	.st8{opacity:0.11;fill:#FFFFFF;}
	.st9{opacity:0.68;}
	.st10{fill:#FFFFFF;}
	.st11{fill:url(#SVGID_00000171001340829399497860000014090168340070545547_);}
	.st12{fill:url(#SVGID_00000104706966044507854560000008575386196519452561_);}
	.st13{fill:url(#SVGID_00000042716237075888149910000002097526792835230863_);}
	.st14{fill:url(#SVGID_00000116221660645959147510000004113280852159754642_);}
	.st15{fill:url(#SVGID_00000063606193933227433230000008570403222091640744_);}
	.st16{fill:url(#SVGID_00000047769560655272602480000017828148115715128252_);}
	.st17{fill:url(#SVGID_00000129914519943273736310000016813673941855715238_);}
	.st18{fill:url(#SVGID_00000148638745453444855130000011664844666596193949_);}
	.st19{fill:url(#SVGID_00000106108374152957713540000000947493390112346508_);}
	.st20{fill:url(#SVGID_00000126324950815296292920000013452098917614510991_);}
	.st21{fill:url(#SVGID_00000167376732432730351720000003465707810481730193_);}
	.st22{fill:url(#SVGID_00000085209711296281366720000018082600221604179872_);}
	.st23{opacity:0.37;fill:#FFFFFF;}
	.st24{fill:url(#SVGID_00000087399623482777461850000002013507946695945626_);}
	.st25{fill:url(#SVGID_00000085237714099249490480000000252500075179793807_);}
	.st26{fill:url(#SVGID_00000070110016651631327490000016803500804789503921_);}
	.st27{fill:url(#SVGID_00000090264830804066575040000007176596051321747344_);}
	.st28{fill:#91B3FA;}
	.st29{fill:#7D97F4;}
	.st30{fill:#BDD0FB;}
	.st31{fill:url(#SVGID_00000153696598059941240780000012028016989258303105_);}
	.st32{fill:url(#SVGID_00000098187421992392522570000008226521252786172815_);}
	.st33{fill:url(#SVGID_00000001660161308575886770000000778990789635267984_);}
	.st34{fill:url(#SVGID_00000012460849286554322420000009522059940921209262_);}
	.st35{fill:url(#SVGID_00000150062389341052324920000004337484979072353412_);}
	.st36{fill:url(#SVGID_00000140009486983715121250000000992183005856775832_);}
	.st37{fill:url(#SVGID_00000037683765844741277360000000756952040795376774_);}
	.st38{fill:url(#SVGID_00000114795174966636715310000002816748279629796774_);}
	.st39{fill:url(#SVGID_00000146482391480921804460000017667988352383356057_);}
	.st40{fill:url(#SVGID_00000075154004341159420900000011987176725414901951_);}
	.st41{fill:url(#SVGID_00000113314883248331762660000010813246719783843261_);}
	.st42{fill:url(#SVGID_00000174568346678373277090000012830285691957036704_);}
	.st43{fill:url(#SVGID_00000169529234275210446510000006095244542868825493_);}
	.st44{fill:url(#SVGID_00000138555171898403000730000004018043824607769481_);}
	.st45{fill:url(#SVGID_00000042709229566135984180000009140526649462312097_);}
	.st46{fill:url(#SVGID_00000073002683875474565950000003096451923810237355_);}
	.st47{fill:url(#SVGID_00000078045156670675339280000018425783804138379905_);}
	.st48{fill:url(#SVGID_00000143604522196174848980000007453463289651984266_);}
	.st49{fill:url(#SVGID_00000092422646013875376680000015660419612475895203_);}
	.st50{fill:url(#SVGID_00000080184423486089616340000004889796287600069561_);}
	.st51{fill:url(#SVGID_00000069372187604951083340000015648683859472992663_);}
	.st52{fill:url(#SVGID_00000178168494922157958790000013955264349122182063_);}
	.st53{fill:url(#SVGID_00000018917706208347591530000012397548747604508802_);}
	.st54{fill:url(#SVGID_00000164509947799296332940000001592836558274253999_);}
	.st55{fill:url(#SVGID_00000170263191968255439480000010169187384262032056_);}
	.st56{opacity:0.6;}
	.st57{opacity:0.6;fill:#FFFFFF;}
	.st58{fill:url(#SVGID_00000115473122842693712410000004128832614395695009_);}
	.st59{fill:url(#SVGID_00000012469769471307380870000007207287891002265778_);}
	.st60{fill:url(#SVGID_00000111903677308470361510000006477169079567649929_);}
	.st61{fill:url(#SVGID_00000149355566677882739580000001879076694935777958_);}
	.st62{fill:url(#SVGID_00000065773017945464526380000002482066454621413027_);}
	.st63{fill:url(#SVGID_00000011010749042096205300000018180364652932644770_);}
	.st64{fill:url(#SVGID_00000090254403608906848200000006669820845842557827_);}
	.st65{fill:url(#SVGID_00000062165505849205473190000002463930337964284556_);}
	.st66{fill:url(#SVGID_00000110460835172991312450000013436689042997554869_);}
	.st67{fill:url(#SVGID_00000159457146981775900200000002612787489916772736_);}
	.st68{fill:url(#SVGID_00000111156828859819625730000015605598804947295372_);}
	.st69{fill:url(#SVGID_00000142866774643667801480000015954845856435830451_);}
	.st70{fill:url(#SVGID_00000165223659534715359010000013773481564020952961_);}
	.st71{fill:url(#SVGID_00000156574430132056255140000008546032386041322687_);}
	.st72{fill:url(#SVGID_00000174580630699354482500000006397258329118205357_);}
	.st73{fill:url(#SVGID_00000115490615026053439200000017408075390210734515_);}
	.st74{fill:url(#SVGID_00000111908523765750164980000014640596051479968645_);}
	.st75{fill:url(#SVGID_00000039128980829999783970000006797553288851582115_);}
	.st76{fill:url(#SVGID_00000147939619129124471710000003211773532384763572_);}
	.st77{fill:url(#SVGID_00000060005047613946235920000017597302148025571727_);}
	.st78{fill:url(#SVGID_00000023969849193006351480000008374728396730020493_);}
	.st79{fill:url(#SVGID_00000076567233638543173320000002301867423561558701_);}
	.st80{fill:url(#SVGID_00000031179196327686805070000014999473628991878273_);}
	.st81{fill:url(#SVGID_00000055701286752694697070000000643933412199218580_);}
	.st82{fill:url(#SVGID_00000146479580820898674420000016777749686637930153_);}
	.st83{fill:url(#SVGID_00000133499418659632544850000006657581372300391850_);}
	.st84{fill:url(#SVGID_00000114773377012964543050000005403771599665810362_);}
	.st85{fill:url(#SVGID_00000101798982240660374510000015530304013386701491_);}
	.st86{fill:url(#SVGID_00000140711115128688503220000016033395845157693119_);}
	.st87{fill:url(#SVGID_00000059273737030100820940000007705702133325779895_);}
	.st88{fill:url(#SVGID_00000074421976701203724340000001269697602927463354_);}
	.st89{fill:url(#SVGID_00000119818736254973489880000000039506467143516084_);}
	.st90{fill:url(#SVGID_00000051376973378977911260000017927108254319311002_);}
	.st91{fill:url(#SVGID_00000096741011910031857790000016722281144191472555_);}
	.st92{fill:url(#SVGID_00000173866197106159918020000011126400597002563234_);}
	.st93{fill:url(#SVGID_00000017513075734236280060000009817549843759065226_);}
	.st94{fill:url(#SVGID_00000007389604479019825190000016913614412820519569_);}
	.st95{fill:url(#SVGID_00000062870836630049845440000016574383576869426565_);}
	.st96{fill:url(#SVGID_00000150792812462851153550000003971838879609403011_);}
	.st97{fill:url(#SVGID_00000181065962270586405700000016571689952105275538_);}
	.st98{fill:url(#SVGID_00000061456851214906342480000005089146982698788253_);}
	.st99{fill:url(#SVGID_00000066511208837818365420000016873420475911464636_);}
	.st100{fill:url(#SVGID_00000075842053504478358250000009181957088818882491_);}
	.st101{fill:url(#SVGID_00000162313460068802207610000001667014189354516911_);}
	.st102{fill:url(#SVGID_00000134971321290703240570000010149410224883751842_);}
	.st103{fill:url(#SVGID_00000101098578533975375130000010792883402977601194_);}
	.st104{fill:url(#SVGID_00000081622528900050196780000012814200214137229981_);}
	.st105{fill:url(#SVGID_00000061452356422788907690000002010089992342399876_);}
	.st106{fill:url(#SVGID_00000064335490450555197270000006864473450188041377_);}
	.st107{fill:url(#SVGID_00000145780156706505262930000010134476630846794663_);}
	.st108{fill:url(#SVGID_00000021804695694255896790000008302133961487782319_);}
	.st109{fill:url(#SVGID_00000128483529507569849440000016558764684331405750_);}
	.st110{fill:url(#SVGID_00000078010942215100189240000011708861101823498667_);}
</style>
<linearGradient id="SVGID_1_" gradientUnits="userSpaceOnUse" x1="-388.9208" y1="1275.8148" x2="-1255.8801" y2="199.1058">
	<stop  offset="0" style="stop-color:#DAE3FE"/>
	<stop  offset="1" style="stop-color:#E9EFFD"/>
</linearGradient>
<path class="st0" d="M-627.8,851.5c-19.9,21-38.7,34.5-53.6,45.2c-174.8,125.6-381.6,89-425.6,80.1
	c-64.9-13.2-190.4-38.7-281.1-145.6c-137.3-161.7-115.9-416.4-9.4-584.6c19.5-30.8,122.3-201.5,331.4-228.8
	c126.5-16.6,274,16.8,380.8,106.5C-461.1,312.4-477.1,692.5-627.8,851.5z"/>
<g>
	<g class="st1">
		<path class="st2" d="M855.5,662.3c-5.1,7.6-16.3,7.6-21.4,0c-28.3-42-97.4-167.8-46.6-335c43-141.2,52.8-221.8,54.8-258.7
			c0.4-7.8,10.5-10.6,14.8-4C904.6,136.5,1039.9,385.6,855.5,662.3z"/>
		<path class="st3" d="M844.2,659.2c1.2-0.8,2-2.2,1.7-3.8c-0.3-2.2-33.1-222.4,17.3-419.9c0.5-2-0.7-4.1-2.7-4.6
			c-2-0.5-4.1,0.7-4.6,2.7c-50.9,199-17.8,420.7-17.5,422.9c0.3,2.1,2.2,3.5,4.3,3.2C843.3,659.7,843.8,659.5,844.2,659.2z"/>
	</g>
	<g>
		<path class="st4" d="M233.2,667.5c5.1,7.6,16.3,7.6,21.4,0c28.3-42,97.4-167.8,46.6-335c-43-141.2-52.8-221.8-54.8-258.7
			c-0.4-7.8-10.5-10.6-14.8-4C184.1,141.7,48.8,390.9,233.2,667.5z"/>
		<path class="st5" d="M244.5,664.5c-1.2-0.8-2-2.2-1.7-3.8c0.3-2.2,33.1-222.4-17.3-419.9c-0.5-2,0.7-4.1,2.7-4.6
			c2-0.5,4.1,0.7,4.6,2.7c50.9,199,17.8,420.7,17.5,422.9c-0.3,2.1-2.2,3.5-4.3,3.2C245.4,664.9,244.9,664.7,244.5,664.5z"/>
	</g>
	<ellipse class="st6" cx="539.2" cy="559.2" rx="487.3" ry="472.8"/>
	<g>
		<path class="st2" d="M185.5,581.2c2.4-62.2,7.2-309.5-55.7-466.2c-4.5-11.2-21.3-14-26.4-3.1c-29.9,62.9-130.2,257.4,71.1,473.6
			C178.2,589.6,185.2,586.9,185.5,581.2z"/>
		<path class="st3" d="M175.4,582.2c-0.5-0.4-1-0.9-1.2-1.6c-47-121.1-61.5-219.7-65.4-281c-4.2-66.6,2.6-104,2.9-105.6
			c0.4-2,2.3-3.3,4.2-2.9c2,0.4,3.3,2.3,2.9,4.2c-0.3,1.5-27.1,152.8,62.2,382.6c0.7,1.9-0.2,4-2.1,4.7
			C177.7,583.2,176.4,583,175.4,582.2z"/>
	</g>
	<g>
		<path class="st2" d="M877.8,595c1-62.2,9.5-309.5,80.7-462.6c5.1-10.9,22-12.8,26.6-1.7c26.4,64.4,116.1,264-96.5,469.1
			C884.5,603.8,877.7,600.7,877.8,595z"/>
		<path class="st3" d="M900.5,598.5c0.5-0.4,1-0.9,1.2-1.6c47-121.1,61.5-219.7,65.4-281c4.2-66.6-2.6-104-2.9-105.6
			c-0.4-2-2.3-3.3-4.2-2.9c-2,0.4-3.3,2.3-2.9,4.2c0.3,1.5,27.1,152.8-62.2,382.6c-0.7,1.9,0.2,4,2.1,4.7
			C898.2,599.4,899.5,599.2,900.5,598.5z"/>
	</g>
	<g>
		
			<linearGradient id="SVGID_00000159449185140871887300000000908228545758712252_" gradientUnits="userSpaceOnUse" x1="530.7968" y1="837.1611" x2="530.7968" y2="86.024">
			<stop  offset="0" style="stop-color:#0071BC"/>
			<stop  offset="1" style="stop-color:#7FFFA0"/>
		</linearGradient>
		<path style="fill:url(#SVGID_00000159449185140871887300000000908228545758712252_);" d="M935.7,479.4
			C926.6,686.6,738,846.5,514.3,836.7C290.7,826.9,116.8,651,125.9,443.8C135,236.6,323.6,76.6,547.3,86.5
			C770.9,96.3,944.8,272.2,935.7,479.4z"/>
		<ellipse class="st8" cx="508.9" cy="434.5" rx="318" ry="300.5"/>
		<g class="st9">
			<path class="st10" d="M634.3,463.4c-0.1,66.2-4.6,132.6-16.3,197.9c-3,16.3-6.4,32.5-10.5,48.6c-4.1,16.1-8.8,32-14.6,47.6
				c-5.8,15.5-12.6,30.8-21.8,44.8c-4.6,6.9-9.9,13.6-16.4,19.1c-3.2,2.7-6.8,5.1-10.7,6.9c-3.9,1.8-8.2,2.9-12.5,2.9
				c-4.3,0.1-8.7-0.7-12.6-2.3c-4-1.6-7.6-3.9-11-6.5c-6.6-5.3-12-11.9-16.7-18.8c-9.3-13.9-16.2-29.2-22.1-44.7
				c-5.9-15.5-10.6-31.5-14.8-47.5c-4.1-16.1-7.6-32.3-10.6-48.6c-5.9-32.6-10-65.5-12.7-98.6c-2.7-33-4.1-66.2-4.2-99.3
				c-0.1-16.6,0.4-33.1,1-49.7c0.6-16.6,1.5-33.1,2.8-49.6c2.5-33,6.1-66,11.6-98.7c2.7-16.3,5.9-32.6,9.7-48.7
				c3.8-16.1,8.3-32.1,13.8-47.8c2.8-7.8,5.8-15.5,9.3-23.1c3.5-7.5,7.3-14.9,11.9-21.9c4.6-7,9.8-13.6,16.3-18.9
				c3.3-2.6,6.9-4.9,10.8-6.5c3.9-1.6,8.2-2.4,12.4-2.2c4.2,0.1,8.4,1.2,12.3,2.9c3.9,1.7,7.4,4,10.7,6.7
				c6.5,5.3,11.9,11.8,16.7,18.6c9.5,13.7,16.7,28.8,22.9,44.2c6.2,15.4,11.3,31.2,15.7,47.2c4.4,16,8.2,32.1,11.4,48.4
				C628.9,330.8,634.2,397.2,634.3,463.4z M629.4,463.4c0.1-33-1.2-66-3.9-98.9c-2.7-32.9-6.8-65.7-12.9-98.1
				c-3-16.2-6.6-32.3-10.8-48.3c-4.2-15.9-9.1-31.7-15.1-47.1c-6-15.3-13-30.4-22.2-44c-4.6-6.8-9.9-13.2-16.2-18.4
				c-3.1-2.6-6.5-4.9-10.2-6.5c-3.7-1.7-7.7-2.7-11.7-2.8c-4-0.1-8.1,0.7-11.8,2.2c-3.7,1.5-7.2,3.8-10.3,6.3
				c-6.3,5.2-11.3,11.8-15.8,18.6c-4.4,6.9-8.2,14.3-11.5,21.8c-3.4,7.5-6.3,15.2-9,23c-5.3,15.6-9.6,31.5-13.2,47.6
				c-3.6,16.1-6.6,32.3-9.2,48.6c-5.1,32.6-8.3,65.5-10.4,98.4c-2.1,32.9-2.8,66-2.8,99c-0.1,33,1,66,3.5,98.9
				c2.5,32.9,6.3,65.7,11.9,98.2c2.8,16.2,6.2,32.4,10.1,48.4c4,16,8.6,31.8,14.3,47.3c5.7,15.4,12.4,30.6,21.4,44.2
				c4.5,6.8,9.7,13.2,16,18.3c3.1,2.5,6.5,4.7,10.2,6.2c3.7,1.5,7.6,2.3,11.6,2.2c3.9-0.1,7.8-1.1,11.5-2.8c3.6-1.7,7-4,10-6.6
				c6.1-5.3,11.2-11.8,15.7-18.6c8.9-13.8,15.5-28.9,21.1-44.4c5.6-15.5,10.2-31.3,14.1-47.3c3.9-16,7.2-32.2,10-48.4
				c5.6-32.5,9.4-65.3,11.9-98.2C628.3,529.4,629.5,496.4,629.4,463.4z"/>
			<path class="st10" d="M801.4,463.4c-0.2,42.6-5.7,85.3-17.1,126.4c-11.6,41-29.1,80.5-52.9,116c-11.9,17.7-25.4,34.4-40.4,49.5
				c-15,15.1-31.7,28.7-49.7,40c-18.1,11.3-37.6,20.4-58,26.5c-20.4,6.2-41.7,9.4-63.1,9.4c-21.3,0-42.7-3.2-63.1-9.3
				c-20.4-6.1-40-15.2-58.1-26.5c-18.1-11.4-34.7-24.9-49.8-40c-15.1-15.1-28.6-31.8-40.5-49.5c-23.8-35.4-41.4-74.9-53-116
				c-5.7-20.6-10-41.5-12.8-62.7c-2.8-21.2-4.2-42.5-4.3-63.8c0.1-21.3,1.5-42.7,4.4-63.8c2.8-21.2,7.1-42.1,12.9-62.7
				c11.7-41,29.3-80.5,53.1-115.9c11.9-17.7,25.4-34.3,40.5-49.4c15.1-15.1,31.7-28.6,49.8-39.9c18.1-11.3,37.6-20.3,58-26.4
				c20.4-6.2,41.7-9.4,63-9.4c21.3,0,42.6,3.3,63,9.4c20.4,6.1,39.9,15.1,58,26.4c18.1,11.3,34.7,24.9,49.7,40
				c15,15.1,28.5,31.7,40.4,49.4c23.8,35.4,41.3,74.9,53,115.9C795.6,378.1,801.2,420.8,801.4,463.4z M795.8,463.4
				c-0.1-42.2-5.3-84.4-16.4-125.1c-11.2-40.6-28-79.9-51.2-115.2c-11.6-17.6-24.8-34.2-39.5-49.3c-14.7-15.1-31-28.7-48.9-40.1
				c-17.8-11.3-37.1-20.3-57.3-26.5c-20.2-6.1-41.3-9.4-62.4-9.4c-21.1,0.1-42.2,3.3-62.4,9.5c-20.2,6.2-39.4,15.2-57.2,26.5
				c-17.8,11.4-34.1,25-48.8,40.1c-14.7,15.1-27.9,31.7-39.4,49.3c-23.1,35.3-39.9,74.5-51.1,115.1c-5.5,20.3-9.6,41.1-12.3,62
				c-2.7,20.9-4.1,42-4.1,63c0.1,21.1,1.4,42.1,4.2,63c2.7,20.9,6.8,41.6,12.3,61.9c11.2,40.6,28,79.8,51.2,115
				c11.6,17.6,24.7,34.2,39.4,49.3c14.7,15.1,31,28.7,48.8,40c17.8,11.3,37.1,20.3,57.2,26.4c20.1,6.2,41.2,9.4,62.3,9.5
				c21.1-0.1,42.1-3.3,62.3-9.5c20.2-6.1,39.4-15.1,57.2-26.4c17.8-11.3,34.1-24.9,48.8-40c14.7-15.1,27.9-31.7,39.5-49.3
				c23.2-35.2,40.1-74.5,51.3-115.1C790.4,547.8,795.7,505.6,795.8,463.4z"/>
			<path class="st10" d="M191.9,318.6c-0.2,0-0.4-0.2-0.4-0.4c0-0.2,0.2-0.4,0.4-0.4l84.5-0.7l84.5-0.4l169-0.3l169,0.3l84.5,0.4
				l84.5,0.7c0.1,0,0.2,0.1,0.2,0.3c0,0.1-0.1,0.2-0.2,0.2l-84.5,0.7l-84.5,0.4l-169,0.3l-169-0.3l-84.5-0.4L191.9,318.6z"/>
			<path class="st10" d="M289.5,176.7c0-0.2,0.2-0.4,0.4-0.4c20-0.3,40-0.5,60-0.7l60-0.4c20-0.2,40-0.1,60-0.2l60-0.1l120,0.3
				l60,0.4c20,0.3,40,0.4,60,0.7c0.1,0,0.2,0.1,0.2,0.3c0,0.1-0.1,0.2-0.2,0.2c-20,0.3-40,0.5-60,0.7l-60,0.4l-120,0.3l-60-0.1
				c-20-0.1-40,0-60-0.2l-60-0.4c-20-0.2-40-0.4-60-0.7C289.7,177.1,289.5,176.9,289.5,176.7z"/>
			<path class="st10" d="M162.5,460.1c-0.2,0-0.4-0.2-0.4-0.4c0-0.2,0.2-0.4,0.4-0.4l91.8-0.7l91.8-0.4l183.6-0.3l183.6,0.3
				l91.8,0.4l91.8,0.7c0.1,0,0.2,0.1,0.2,0.2c0,0.1-0.1,0.2-0.2,0.2l-91.8,0.7l-91.8,0.4l-183.6,0.3l-183.6-0.3l-91.8-0.4
				L162.5,460.1z"/>
			<path class="st10" d="M191.9,600.8l84.5-0.7l84.5-0.4l169-0.3l169,0.3l84.5,0.4l84.5,0.7c0.1,0,0.2,0.1,0.2,0.3
				c0,0.1-0.1,0.2-0.2,0.2l-84.5,0.7l-84.5,0.4l-169,0.3l-169-0.3l-84.5-0.4l-84.5-0.7c-0.2,0-0.4-0.2-0.4-0.4
				C191.5,601,191.7,600.8,191.9,600.8z"/>
			<path class="st10" d="M783.1,742.7c0,0.7-0.6,1.3-1.3,1.3H302c-0.7,0-1.3-0.6-1.3-1.3c0-0.7,0.6-1.3,1.3-1.3h479.8
				C782.5,741.4,783.1,742,783.1,742.7z"/>
		</g>
	</g>
	<g>
		<g>
			
				<linearGradient id="SVGID_00000018234968172696696120000015994560643335251869_" gradientUnits="userSpaceOnUse" x1="3839.7517" y1="1165.3213" x2="3890.9053" y2="1165.3213" gradientTransform="matrix(0.9998 9.300000e-03 -1.950000e-02 0.7887 -3733.4062 61.27)">
				<stop  offset="0" style="stop-color:#09005D"/>
				<stop  offset="1" style="stop-color:#1A0F91"/>
			</linearGradient>
			<path style="fill:url(#SVGID_00000018234968172696696120000015994560643335251869_);" d="M133.6,1030.9c0-0.3,0-0.6-0.1-0.9
				c-5.3-18.1-33.6-29.6-33.6-29.6l-11.3,0.6c-6.9,15.8-6.3,25.6-5.4,29.9c0,0.1,0.1,0.2,0.1,0.4
				C92.6,1032.1,111.9,1032.7,133.6,1030.9z"/>
			
				<linearGradient id="SVGID_00000128447868002539151100000001835537934710913468_" gradientUnits="userSpaceOnUse" x1="3967.8127" y1="1104.9753" x2="3781.7131" y2="1251.1013" gradientTransform="matrix(0.9998 9.300000e-03 -1.950000e-02 0.7887 -3733.4062 61.27)">
				<stop  offset="0" style="stop-color:#4F52FF"/>
				<stop  offset="1" style="stop-color:#4042E2"/>
			</linearGradient>
			<path style="fill:url(#SVGID_00000128447868002539151100000001835537934710913468_);" d="M83.3,1031.3c0.5,1.5,1.8,2.6,3.5,2.9
				c13.2,2.3,34.4,0.8,43.3-0.1c2-0.2,3.4-1.6,3.5-3.2C111.9,1032.7,92.6,1032.1,83.3,1031.3z"/>
		</g>
		<g>
			
				<linearGradient id="SVGID_00000047061862107881235440000016669205309066769316_" gradientUnits="userSpaceOnUse" x1="-1223.6235" y1="1009.0833" x2="-1106.02" y2="1059.9183" gradientTransform="matrix(-1 0 0 1 -1005.0386 0)">
				<stop  offset="0" style="stop-color:#4F52FF"/>
				<stop  offset="1" style="stop-color:#4042E2"/>
			</linearGradient>
			<path style="fill:url(#SVGID_00000047061862107881235440000016669205309066769316_);" d="M164.6,1027.9
				c-10.1-0.3-15.3-1.5-18-2.6c0,1,0,2,0,3.1c0,1.1,0.9,2,1.9,2l55.3-0.4c1.8,0,2.8-2.1,2-3.7C198.6,1027,180.2,1028.4,164.6,1027.9
				z"/>
			
				<linearGradient id="SVGID_00000074400165965245918600000008515909710185375121_" gradientUnits="userSpaceOnUse" x1="1980.6963" y1="1022.0928" x2="2104.0681" y2="981.4135" gradientTransform="matrix(1 0 0 1 -1829.7137 0)">
				<stop  offset="0" style="stop-color:#09005D"/>
				<stop  offset="1" style="stop-color:#1A0F91"/>
			</linearGradient>
			<path style="fill:url(#SVGID_00000074400165965245918600000008515909710185375121_);" d="M205.9,1026.4c-0.1-0.1-0.1-0.3-0.2-0.4
				c-4.9-6.8-17.3-20.4-41.9-26.3l-11.8-0.4c0,0-5.2,9.1-5.3,26c2.7,1.1,7.9,2.3,18,2.6C180.2,1028.4,198.6,1027,205.9,1026.4z"/>
		</g>
		
			<linearGradient id="SVGID_00000114753654530600167670000003796433014400729473_" gradientUnits="userSpaceOnUse" x1="-975.926" y1="529.0108" x2="-1216.0249" y2="1089.4954" gradientTransform="matrix(-1 0 0 1 -1005.0386 0)">
			<stop  offset="0" style="stop-color:#09005D"/>
			<stop  offset="1" style="stop-color:#1A0F91"/>
		</linearGradient>
		<path style="fill:url(#SVGID_00000114753654530600167670000003796433014400729473_);" d="M143.9,726.7c0,0,24.9,138.7,24.3,274.6
			c0,2.5-18.1,5.8-18.5,3.5c-4-23.4-30.4-175.5-43.4-196.9c0,0-5.3,134.7-2.6,195.5c0.1,1.5-16.8,3.9-17.1,2.2
			c-2.8-19.8-21.9-157.4-21.3-242.2c0-4.8,4.5-44.6,4.5-44.6C98,723.6,119.4,732.1,143.9,726.7z"/>
		
			<linearGradient id="SVGID_00000183250875190827546130000000757055746641289859_" gradientUnits="userSpaceOnUse" x1="186.9509" y1="898.9258" x2="155.1542" y2="694.0142">
			<stop  offset="0" style="stop-color:#4F52FF"/>
			<stop  offset="1" style="stop-color:#4042E2"/>
		</linearGradient>
		<path style="fill:url(#SVGID_00000183250875190827546130000000757055746641289859_);" d="M53.7,647.1c-16.4-36.1-18.1-61.5,0-72.3
			c1.1-0.3,2.2-0.5,3.3-0.6c5.8-0.7,13.8-1.7,23-3c0,0,0,0,0.1,0c1.3-0.3,19.7-4.2,39.7-5.5c19.2-1.2,39.9,0.1,48.2,9.5
			c0,0,5.7,14.2,16.5,28.3c15.4,20.3,23,42.8,31,38.4c2.2-1.2,3.8-9.3,5.5-12.9c5.8,0.7,17.5,2.5,26.5,12.1
			c-6.7,36.4-28.9,51.5-83.2,6.8c-10.3,29.2-21.7,66.1-18,92.9c0.3,2.3-1.5,4.7-3.8,5.1c-12.4,1.8-51.7,6.5-70.8-1.1
			c-1.1-0.4-4.2-1-4.2-2.3c0-8.8,2.3-44-12.3-90.2C54.5,650.6,54.1,648.8,53.7,647.1z"/>
		
			<linearGradient id="SVGID_00000008867833759366520220000008878685442809230768_" gradientUnits="userSpaceOnUse" x1="1942.4938" y1="526.375" x2="1912.4797" y2="656.0781" gradientTransform="matrix(1 0 0 1 -1829.7137 0)">
			<stop  offset="0" style="stop-color:#FEBBBA"/>
			<stop  offset="1" style="stop-color:#FF928E"/>
		</linearGradient>
		<path style="fill:url(#SVGID_00000008867833759366520220000008878685442809230768_);" d="M90.1,536.5l-3.7,37.8
			c0,0,21.2,6.4,36.7-4.5l-10.9-34.3L90.1,536.5z"/>
		<g>
			
				<linearGradient id="SVGID_00000065781569212640975290000014313262176026871738_" gradientUnits="userSpaceOnUse" x1="564.4377" y1="-819.4662" x2="511.1926" y2="-749.0272" gradientTransform="matrix(0.9332 -0.3594 0.3594 0.9332 -115.7072 1475.9287)">
				<stop  offset="0" style="stop-color:#FEBBBA"/>
				<stop  offset="1" style="stop-color:#FF928E"/>
			</linearGradient>
			<path style="fill:url(#SVGID_00000065781569212640975290000014313262176026871738_);" d="M126.2,504.3c0.3,0.7,1.3,47.1,1.3,47.1
				l-26.5,0l-7.5-43.8C93.4,507.6,121.9,493.3,126.2,504.3z"/>
			<path d="M102.5,513.1c-0.9,0.8-1.3,2-1.2,3.1l2.1,23c0,0.3,0.1,0.7,0.2,1c0.7,1.8,3.4,7.4,9.1,4.3c4.8-2.6,9.3-5,12.9-5.1
				c2.1-0.1,3.9,1.6,3.9,3.7c0.1,4.4,0.1,13.1-1,20.9c-0.3,2-2,3.4-4,3.2c-5.2-0.3-15.3-1.3-23.5-3.9c-1.3-0.4-2.3-1.6-2.6-2.9
				c-1.1-6.1-4.3-23.1-6-27.8c-1.5-4.3-7.5-5.8-10.3-6.3c-1.1-0.2-2-0.8-2.6-1.7c-1.8-2.7-4.3-8.5,2.7-12.9c1.7-1.1,2.2-3.4,1.2-5.2
				c-1.9-3.2-3.3-8,2.3-12.2c5.6-4.2,11-2.2,14.3-0.1c1.5,0.9,3.4,0.9,4.7-0.3c0.6-0.5,1.4-0.8,2.4-0.5c5.5,1.4,4.5-6.2,7.3-8.6
				c3.9-3.3,8.2,1.5,9.8,5.1c0.9,2,1.5,4.1,2.5,6c1.5,3,3.9,5.7,6.7,7.5c0.4,0.3,0.9,0.6,1.2,1c0.3,0.7,0.1,1.5-0.4,2.1
				c-0.5,0.6-1.2,0.9-1.9,1.2c-5.6,2.4-11.4,2.6-17.3,0.7C110,506.9,104.9,510.8,102.5,513.1z"/>
			
				<linearGradient id="SVGID_00000046303746144173346530000013299972874986062489_" gradientUnits="userSpaceOnUse" x1="487.4232" y1="-763.9928" x2="529.5698" y2="-807.2341" gradientTransform="matrix(0.9332 -0.3594 0.3594 0.9332 -115.7072 1475.9287)">
				<stop  offset="0" style="stop-color:#FEBBBA"/>
				<stop  offset="1" style="stop-color:#FF928E"/>
			</linearGradient>
			<path style="fill:url(#SVGID_00000046303746144173346530000013299972874986062489_);" d="M94.5,540.9c0,0,0.5-13.7-5-15.8
				c-5.5-2.1-12.2,1.2-8.5,10.2C85.6,546.6,94.5,540.9,94.5,540.9z"/>
		</g>
		<g>
			<g>
				
					<linearGradient id="SVGID_00000149346796006047349170000006619791820427834251_" gradientUnits="userSpaceOnUse" x1="93.6024" y1="456.792" x2="108.9126" y2="518.033">
					<stop  offset="0" style="stop-color:#4F52FF"/>
					<stop  offset="1" style="stop-color:#4042E2"/>
				</linearGradient>
				<path style="fill:url(#SVGID_00000149346796006047349170000006619791820427834251_);" d="M134.6,503.3
					c-8.2-43-69.3-25.1-55.3,13.4C100.5,510.4,125.7,499.1,134.6,503.3z"/>
			</g>
			
				<linearGradient id="SVGID_00000111875933049734979840000001176751389940371608_" gradientUnits="userSpaceOnUse" x1="134.3326" y1="450.4809" x2="123.7332" y2="535.2761">
				<stop  offset="0" style="stop-color:#4F52FF"/>
				<stop  offset="1" style="stop-color:#4042E2"/>
			</linearGradient>
			<path style="fill:url(#SVGID_00000111875933049734979840000001176751389940371608_);" d="M99.2,509.5l35.5,9.7
				c0.9,0.2,1.9,0,2.5-0.6c4.9-4.7,10.6-6.9,17-7.1c0.8,0,1-1.1,0.2-1.4l-21.1-8.1c0,0,0,0-0.1,0c-11-2.5-22.5,1.1-34.2,6.7
				C98.7,508.8,98.8,509.4,99.2,509.5z"/>
		</g>
		<g>
			
				<linearGradient id="SVGID_00000008863735158706363480000007391214026561281164_" gradientUnits="userSpaceOnUse" x1="299.3088" y1="557.3566" x2="115.5946" y2="668.6451">
				<stop  offset="0" style="stop-color:#FF928E"/>
				<stop  offset="1" style="stop-color:#FE7062"/>
			</linearGradient>
			<path style="fill:url(#SVGID_00000008863735158706363480000007391214026561281164_);" d="M89.4,699.7
				c-10.7,0.2-19.4-8.4-19.4-19.1v-84.8c0-11.1,9-20.2,20.1-20.3c33.4-0.4,102.4-0.4,158.8,4.4c7.7,0.6,13.7,7,14,14.7l5.3,82
				c0.4,10.8-8.2,19.9-19,20.1L89.4,699.7z"/>
			<path class="st23" d="M161.2,647.7l23,2.5c3.2,0.3,6-2.3,5.7-5.5l-5-68.3c-9.6-0.3-19.1-0.5-28.3-0.7v66.9
				C156.6,645.2,158.6,647.4,161.2,647.7z"/>
			<path class="st10" d="M170.6,635.9c0.1,1.2,1.1,2.2,2.3,2.2c0,0,0.1,0,0.1,0c1.3-0.1,2.2-1.2,2.2-2.4l-3.5-59.6
				c-1.6,0-3.1-0.1-4.6-0.1L170.6,635.9z"/>
		</g>
		<g>
			
				<linearGradient id="SVGID_00000068674510671820141840000000773616787185336206_" gradientUnits="userSpaceOnUse" x1="3710.0525" y1="86.8289" x2="3586.7473" y2="-32.1427" gradientTransform="matrix(-0.254 -0.9672 -0.9672 0.254 1091.4071 4221.7549)">
				<stop  offset="0" style="stop-color:#FEBBBA"/>
				<stop  offset="1" style="stop-color:#FF928E"/>
			</linearGradient>
			<path style="fill:url(#SVGID_00000068674510671820141840000000773616787185336206_);" d="M167.7,708.5c4.1-5.8,1-9.6,1-9.6
				c-20.9-7.5-50.8-6.9-73.5-35.3c-9.2,4.9-1.8,7.8-11.9,22.5C130.9,716.6,167.7,708.5,167.7,708.5z"/>
			
				<linearGradient id="SVGID_00000010998986005451523330000012076344139145942462_" gradientUnits="userSpaceOnUse" x1="159.1777" y1="589.0331" x2="337.5919" y2="465.3799">
				<stop  offset="0" style="stop-color:#4F52FF"/>
				<stop  offset="1" style="stop-color:#4042E2"/>
			</linearGradient>
			<path style="fill:url(#SVGID_00000010998986005451523330000012076344139145942462_);" d="M71.1,601.5
				c0.3,34.2,11.1,60.3,62.5,86.9l-10.5,16.3c-25-2.3-69-35.7-82.3-60.5c-3.3-6.1-7.8-25.3-7.1-38.9C35,577.4,63.7,551.9,71.1,601.5
				z"/>
			
				<linearGradient id="SVGID_00000037650891738484798640000000109401003204913062_" gradientUnits="userSpaceOnUse" x1="-1087.8965" y1="710.0683" x2="-1216.2294" y2="700.4083" gradientTransform="matrix(-1 0 0 1 -1005.0386 0)">
				<stop  offset="0" style="stop-color:#FEBBBA"/>
				<stop  offset="1" style="stop-color:#FF928E"/>
			</linearGradient>
			<path style="fill:url(#SVGID_00000037650891738484798640000000109401003204913062_);" d="M167.2,708.4c12.5,4.6,21.1-2.9,26.7-11
				c-11.7-1.3-19.1-1.5-28.7,0.4L167.2,708.4z"/>
		</g>
		
			<linearGradient id="SVGID_00000019672890737983651040000006175031222954129557_" gradientUnits="userSpaceOnUse" x1="2246.582" y1="873.9149" x2="2301.55" y2="1132.7723" gradientTransform="matrix(0.9937 -0.1123 0.1123 0.9937 -2083.6624 -38.8934)">
			<stop  offset="0" style="stop-color:#FEBBBA"/>
			<stop  offset="1" style="stop-color:#FF928E"/>
		</linearGradient>
		<path style="fill:url(#SVGID_00000019672890737983651040000006175031222954129557_);" d="M269.5,621.1
			c-3.2-0.8-10.3-10.5-11.1-6.9c-0.8,3.5,1.4,8,1.1,9.5c-0.3,1.5-2.7,9.9-0.8,13.5c1.4,2.6,4.1,10.6,5.5,14.9
			c0.5,1.4,0.8,3.3,2.3,3.1c1.5-0.2,2.6-2.2,2.8-3.6C269.2,650.9,272.7,621.9,269.5,621.1z"/>
	</g>
	<g>
		<g>
			
				<ellipse transform="matrix(0.7071 -0.7071 0.7071 0.7071 48.0696 569.3655)" class="st28" cx="711.3" cy="226.7" rx="111.2" ry="111.2"/>
			
				<ellipse transform="matrix(0.7071 -0.7071 0.7071 0.7071 48.0696 569.3654)" class="st29" cx="711.3" cy="226.7" rx="107.5" ry="107.5"/>
			<ellipse transform="matrix(0.7071 -0.7071 0.7071 0.7071 47.0993 571.7079)" class="st30" cx="713.7" cy="229" rx="91" ry="91"/>
		</g>
		<g>
			
				<ellipse transform="matrix(0.7071 -0.7071 0.7071 0.7071 -59.6413 309.3283)" class="st28" cx="343.6" cy="226.7" rx="111.2" ry="111.2"/>
			<circle class="st29" cx="343.6" cy="226.7" r="107.5"/>
			<path class="st30" d="M244.5,222.1C244.5,222.1,244.4,222.1,244.5,222.1c-0.5,0-0.8-0.4-0.7-0.8c0.2-4.2,0.7-8.4,1.5-12.6
				c0.1-0.4,0.5-0.7,0.9-0.6c0.4,0.1,0.7,0.5,0.6,0.9c-0.7,4.1-1.2,8.2-1.4,12.4C245.2,221.8,244.9,222.1,244.5,222.1z"/>
			<path class="st30" d="M254.9,182.7c-0.1,0-0.2,0-0.3-0.1c-0.4-0.2-0.5-0.6-0.3-1c8.2-16.3,20.7-30,36.2-39.7
				c15.9-10,34.2-15.2,53.1-15.2c0,0,0,0,0,0c6.1,0,12.1,0.6,18,1.6c0.4,0.1,0.7,0.5,0.6,0.9c-0.1,0.4-0.5,0.7-0.9,0.6
				c-5.8-1.1-11.8-1.6-17.8-1.6c0,0,0,0,0,0c-18.6,0-36.6,5.2-52.3,15c-15.2,9.6-27.6,23.1-35.7,39.1
				C255.5,182.6,255.2,182.7,254.9,182.7z"/>
			
				<ellipse transform="matrix(0.7071 -0.7071 0.7071 0.7071 -60.6127 311.6702)" class="st30" cx="345.9" cy="229" rx="91" ry="91"/>
		</g>
		<g>
			
				<linearGradient id="SVGID_00000148627396826004935540000005040869496465104306_" gradientUnits="userSpaceOnUse" x1="535.504" y1="228.2403" x2="525.4808" y2="195.1813">
				<stop  offset="0" style="stop-color:#A22B25"/>
				<stop  offset="1" style="stop-color:#C0423C"/>
			</linearGradient>
			<path style="fill:url(#SVGID_00000148627396826004935540000005040869496465104306_);" d="M519.7,213.7c0,0-4.3-11.3-9.3-10.3
				c-5,1-10.5,4.9-10.5,4.9l-8.1,10.9c0,0,22.7,8.9,30.6,3.8c0,0,23.1,4,52.4-0.8c-4.2-8.9-6.8-17.9-8.2-24.8
				C551.7,205.8,535.8,212.1,519.7,213.7z"/>
			
				<linearGradient id="SVGID_00000021810943238785871120000013808282715392413114_" gradientUnits="userSpaceOnUse" x1="716.3411" y1="99.5242" x2="542.3481" y2="246.1405">
				<stop  offset="0" style="stop-color:#FE7062"/>
				<stop  offset="1" style="stop-color:#FF928E"/>
			</linearGradient>
			<path style="fill:url(#SVGID_00000021810943238785871120000013808282715392413114_);" d="M642.2,131.6c0,0-33.1,41.7-75.7,65.8
				c1.5,6.9,4,15.9,8.2,24.8c22.1-3.6,47.7-12.3,69.4-31.5L642.2,131.6z"/>
		</g>
		
			<linearGradient id="SVGID_00000132081326653836366800000004259749708291427211_" gradientUnits="userSpaceOnUse" x1="373.45" y1="189.1581" x2="215.2507" y2="305.982">
			<stop  offset="0" style="stop-color:#FE7062"/>
			<stop  offset="1" style="stop-color:#FF928E"/>
		</linearGradient>
		<path style="fill:url(#SVGID_00000132081326653836366800000004259749708291427211_);" d="M393.9,137.1l2.1,55.2
			c5.8,2,11.4,3.6,16.7,4.7c3.3-10.7,10.6-23.8,16.6-33.5C407.3,155.9,393.9,137.1,393.9,137.1z"/>
		
			<linearGradient id="SVGID_00000080195696483484384170000000095461883021353099_" gradientUnits="userSpaceOnUse" x1="500.8918" y1="82.5326" x2="437.6217" y2="224.8903">
			<stop  offset="0" style="stop-color:#FF928E"/>
			<stop  offset="1" style="stop-color:#FEB3B1"/>
		</linearGradient>
		<path style="fill:url(#SVGID_00000080195696483484384170000000095461883021353099_);" d="M503.5,136.2
			c-30.1,32.5-54.5,34.4-74.2,27.4c-6,9.7-13.3,22.8-16.6,33.5c80.4,17.7,99.3-56.2,99.3-56.2L503.5,136.2z"/>
		
			<linearGradient id="SVGID_00000170254722772006867580000006310360666228972691_" gradientUnits="userSpaceOnUse" x1="541.3317" y1="115.2986" x2="522.1324" y2="135.3513">
			<stop  offset="0" style="stop-color:#FF928E"/>
			<stop  offset="1" style="stop-color:#FEB3B1"/>
		</linearGradient>
		<path style="fill:url(#SVGID_00000170254722772006867580000006310360666228972691_);" d="M509.6,132.7c0,0,3.5-3.7,9.9-2.6
			c6.4,1.2,12.1,3.4,16.1,0c4-3.4,5.4,1.2,5.4,1.2l-12,9.1L509.6,132.7z"/>
		
			<linearGradient id="SVGID_00000167371716662490014960000006271696808718636443_" gradientUnits="userSpaceOnUse" x1="547.6175" y1="103.2995" x2="484.3473" y2="245.6573">
			<stop  offset="0" style="stop-color:#FF928E"/>
			<stop  offset="1" style="stop-color:#FEB3B1"/>
		</linearGradient>
		<path style="fill:url(#SVGID_00000167371716662490014960000006271696808718636443_);" d="M502.4,139.1c0,0,2.4-9.9,9.5-8.6
			c7.2,1.4,23.4,10.2,27.6,8.6c4.2-1.6,9.5-5.5,12.3-4.1l-4.8,6c0,0,12.4-7.2,14.6-2.8l-20.7,11.7
			C540.9,149.8,510.6,146.8,502.4,139.1z"/>
		<g>
			
				<linearGradient id="SVGID_00000033338758655200584650000008116254519334460850_" gradientUnits="userSpaceOnUse" x1="399.3231" y1="161.8884" x2="260.5947" y2="339.5581">
				<stop  offset="0" style="stop-color:#FE7062"/>
				<stop  offset="1" style="stop-color:#FF928E"/>
			</linearGradient>
			<path style="fill:url(#SVGID_00000033338758655200584650000008116254519334460850_);" d="M397.1,220.5
				c21.9-26.1,30.3-53.9,4.2-80.6c-26.1-26.8-47-12.9-47-12.9c-58.3,35.5-65,132.1-65.1,173.3c15.5,12.4,35.2,19.8,56.6,19.8
				c3.5,0,7-0.2,10.4-0.6C354.7,292.1,376.7,244.9,397.1,220.5z"/>
		</g>
		
			<linearGradient id="SVGID_00000048485577052000119470000003824891099344545943_" gradientUnits="userSpaceOnUse" x1="407.5062" y1="95.3013" x2="357.0118" y2="156.7462">
			<stop  offset="0" style="stop-color:#FF928E"/>
			<stop  offset="1" style="stop-color:#FEB3B1"/>
		</linearGradient>
		<path style="fill:url(#SVGID_00000048485577052000119470000003824891099344545943_);" d="M392.1,87c0,1.7-25,37.2-25,37.2
			s4.5,8.8,25.8,16l18.4-37.9L392.1,87z"/>
		
			<linearGradient id="SVGID_00000172414670968316954120000017284529558466310826_" gradientUnits="userSpaceOnUse" x1="510.6131" y1="112.4254" x2="486.8868" y2="156.8362">
			<stop  offset="0" style="stop-color:#FF928E"/>
			<stop  offset="1" style="stop-color:#FEB3B1"/>
		</linearGradient>
		<path style="fill:url(#SVGID_00000172414670968316954120000017284529558466310826_);" d="M382.3,208.6c0,0,47.3,39.6,98.4,22.3
			c3.2-1.1,6.6-0.8,9.6,0.7l14.7,7.8c6.2,3.3,13.8,1.1,17.4-4.9c2-3.4,3.8-7.3,4.1-11l-28.7-11.6l2.1-3.5c0,0-14-1.2-17.7,8.9
			c0,0-26.7,11.1-71.8-38.5C410.3,178.7,389.9,196.1,382.3,208.6z"/>
		
			<linearGradient id="SVGID_00000176750890909017657930000001000870383746042550_" gradientUnits="userSpaceOnUse" x1="488.8839" y1="-2.8034" x2="403.6998" y2="129.8402">
			<stop  offset="0" style="stop-color:#E1473D"/>
			<stop  offset="1" style="stop-color:#E9605A"/>
		</linearGradient>
		<path style="fill:url(#SVGID_00000176750890909017657930000001000870383746042550_);" d="M379.7,208.4c-0.2,0-0.4-0.1-0.6-0.2
			c-20-13.5-29.4-35.3-29.5-35.5c-0.2-0.5,0-1.1,0.6-1.4c0.5-0.2,1.1,0,1.4,0.6c0.1,0.2,9.3,21.4,28.7,34.6c0.5,0.3,0.6,1,0.3,1.5
			C380.4,208.2,380,208.4,379.7,208.4z"/>
		
			<linearGradient id="SVGID_00000033337918015596570200000005962487512534164154_" gradientUnits="userSpaceOnUse" x1="487.1867" y1="-3.8931" x2="402.0025" y2="128.7506">
			<stop  offset="0" style="stop-color:#E1473D"/>
			<stop  offset="1" style="stop-color:#E9605A"/>
		</linearGradient>
		<path style="fill:url(#SVGID_00000033337918015596570200000005962487512534164154_);" d="M409.4,178.3c-0.3,0-0.7-0.2-0.9-0.5
			c-0.1-0.1-6.1-9.6-17.7-30.3c-3.5-6.3-8.2-10.3-13.8-11.9c-9.3-2.6-18.3,2.4-18.4,2.4c-0.5,0.3-1.1,0.1-1.4-0.4
			c-0.3-0.5-0.1-1.1,0.4-1.4c0.4-0.2,9.8-5.5,19.9-2.6c6.2,1.7,11.2,6.1,15.1,12.9c11.6,20.7,17.6,30.1,17.7,30.2
			c0.3,0.5,0.2,1.1-0.3,1.4C409.8,178.2,409.6,178.3,409.4,178.3z"/>
		<g>
			
				<linearGradient id="SVGID_00000152232564700656193090000008605690526252796548_" gradientUnits="userSpaceOnUse" x1="376.0067" y1="34.0995" x2="396.6912" y2="83.3772">
				<stop  offset="0" style="stop-color:#FF928E"/>
				<stop  offset="1" style="stop-color:#FEB3B1"/>
			</linearGradient>
			<path style="fill:url(#SVGID_00000152232564700656193090000008605690526252796548_);" d="M411.7,66.7c0,0,8.9,20.4,9.5,31.1
				c0.6,10.7,2.9,17.6-9.5,19.8c-12.4,2.2-22.8-4-28.4-14.7c0,0-8.8-16.4-6.9-23.1S411.7,66.7,411.7,66.7z"/>
			<path d="M387.5,95.2l0.7-0.3c0.9-0.4,1.3-1.5,0.8-2.3c-1.7-3.4-5.1-11.1-0.8-12.9c5.7-2.3,28.1-6.9,32.9-14.9
				c4.6-7.6,0.5-17.5-5.7-20.3c-0.4-0.2-0.9,0-1.1,0.4l-0.5,1c-0.4,0.7-1.3,0.6-1.6-0.2l0,0c-0.2-0.7-1.1-0.8-1.5-0.2
				c-1.5,2.4-5.5,6.2-16.2,8.2c-15.3,2.8-25.3,9-25.6,19.5c0,0.7-0.7,1-1.3,0.7c-1.1-0.7-2.9-1-5.3,1c-4.2,3.5-2.5,12.7,6.7,20.2
				c0.4,0.4,0.4,1,0,1.3c-1.7,1.1-4.1,3.7,2.3,7.1c6.7,3.6,11.6,3.3,13.5,2.9c0.5-0.1,0.8-0.5,0.7-1l-2-9.3c-0.1-0.5,0.3-1,0.8-1
				H387.5z"/>
			
				<linearGradient id="SVGID_00000113323348954552344140000001312755361182579848_" gradientUnits="userSpaceOnUse" x1="359.7509" y1="40.9228" x2="380.4355" y2="90.2006">
				<stop  offset="0" style="stop-color:#FF928E"/>
				<stop  offset="1" style="stop-color:#FEB3B1"/>
			</linearGradient>
			<path style="fill:url(#SVGID_00000113323348954552344140000001312755361182579848_);" d="M387.9,97.2c0,0-3.4-13-9.2-9.4
				c-5.8,3.7,3,14.6,7.7,15.1L387.9,97.2z"/>
		</g>
		
			<linearGradient id="SVGID_00000176015512257994360140000007128701462058054577_" gradientUnits="userSpaceOnUse" x1="502.6082" y1="239.0622" x2="497.0557" y2="220.7487">
			<stop  offset="0" style="stop-color:#A22B25"/>
			<stop  offset="1" style="stop-color:#C0423C"/>
		</linearGradient>
		<path style="fill:url(#SVGID_00000176015512257994360140000007128701462058054577_);" d="M490.2,231.6c0,0,12,11.8,14.3,10
			c0.8-0.6,2.9-2.8,4.9-5.3c1.4-1.7,1.6-4.2,0.4-6.1l-2.8-4.4c-2.7-4.2-8.5-5-12.2-1.8C492.9,225.8,491.2,228.2,490.2,231.6z"/>
		
			<linearGradient id="SVGID_00000044876746982757762870000004214792597866656929_" gradientUnits="userSpaceOnUse" x1="768.9952" y1="162.01" x2="595.0016" y2="308.6269">
			<stop  offset="0" style="stop-color:#FE7062"/>
			<stop  offset="1" style="stop-color:#FF928E"/>
		</linearGradient>
		<path style="fill:url(#SVGID_00000044876746982757762870000004214792597866656929_);" d="M731.1,131c-46.7-13.7-88.9,0.6-88.9,0.6
			l-3.4,21.7c-3,19.4,0.4,39.2,10,56.3c25.9,46.1,30,90.9,30.7,103.8c10.5,4.3,22,6.6,34.1,6.6c16.1,0,31.3-4.2,44.5-11.6
			C788.3,186.9,731.1,131,731.1,131z"/>
		
			<linearGradient id="SVGID_00000161608914990428272330000014030524610103656611_" gradientUnits="userSpaceOnUse" x1="677.549" y1="129.7936" x2="666.9227" y2="94.7452">
			<stop  offset="0" style="stop-color:#A22B25"/>
			<stop  offset="1" style="stop-color:#C0423C"/>
		</linearGradient>
		<path style="fill:url(#SVGID_00000161608914990428272330000014030524610103656611_);" d="M649.4,103.9l10.9,26.3
			c0.7,1.7,2.2,2.8,4,3.1c6.3,1.1,21.5,2.8,31.6-3.8c1.2-0.8,1.5-2.4,0.7-3.6l-20.2-29L649.4,103.9z"/>
		<g>
			<path class="st30" d="M668.7,229.4c-1.5,0.4-2.3,2.1-1.5,3.5l31.6,60.6c0.5,1,1.7,1.5,2.8,1.2L805,264.8c1.3-0.4,2-1.7,1.7-3
				l-17.8-61.7c-0.4-1.3-1.7-2-3-1.7L668.7,229.4z"/>
			<path class="st28" d="M675.4,222.2c-1.5,0.4-2.3,1.9-1.8,3.3l25.3,68.8c0.5,1.3,1.8,1.9,3.1,1.6l103.1-29.8
				c1.3-0.4,2.1-1.7,1.8-3L792.6,197c-0.3-1.4-1.7-2.3-3.1-1.9L675.4,222.2z"/>
			
				<linearGradient id="SVGID_00000047743956338088699910000012315995067449548420_" gradientUnits="userSpaceOnUse" x1="807.2103" y1="105.6446" x2="748.7985" y2="230.9866">
				<stop  offset="0" style="stop-color:#09005D"/>
				<stop  offset="1" style="stop-color:#1A0F91"/>
			</linearGradient>
			<path style="fill:url(#SVGID_00000047743956338088699910000012315995067449548420_);" d="M684.3,215.3c-1.8,0.3-3,2-2.6,3.8
				l17.2,74.2c0.4,1.8,2.2,2.8,3.9,2.3l101.6-29.3c1.6-0.5,2.6-2.2,2.2-3.8L791,201.9c-0.4-1.6-1.9-2.6-3.5-2.3L684.3,215.3z"/>
		</g>
		
			<linearGradient id="SVGID_00000040575302350622836340000011063576666053579950_" gradientUnits="userSpaceOnUse" x1="774.1689" y1="168.1497" x2="600.176" y2="314.766">
			<stop  offset="0" style="stop-color:#FE7062"/>
			<stop  offset="1" style="stop-color:#FF928E"/>
		</linearGradient>
		<path style="fill:url(#SVGID_00000040575302350622836340000011063576666053579950_);" d="M774.2,241.5c7.9-59.6-38-105.3-38-105.3
			l-5.1-5.2l-22.2,37c20.7,25.8,30.6,49.5,35.1,68.1C750,234.4,764.4,231.6,774.2,241.5z"/>
		
			<linearGradient id="SVGID_00000020370318840884194370000009853266404280071818_" gradientUnits="userSpaceOnUse" x1="698.0074" y1="186.9193" x2="754.9247" y2="217.2206">
			<stop  offset="0" style="stop-color:#E1473D"/>
			<stop  offset="1" style="stop-color:#E9605A"/>
		</linearGradient>
		<path style="fill:url(#SVGID_00000020370318840884194370000009853266404280071818_);" d="M744,236.9c-0.3,0-0.6-0.2-0.7-0.6
			c-5.6-23.1-17.3-45.9-34.9-67.8c-0.3-0.3-0.2-0.8,0.1-1.1c0.3-0.3,0.8-0.2,1.1,0.1c17.7,22.1,29.6,45.1,35.2,68.4
			c0.1,0.4-0.2,0.8-0.6,0.9C744.1,236.9,744.1,236.9,744,236.9z"/>
		
			<linearGradient id="SVGID_00000018927351424512515120000006635174023576937369_" gradientUnits="userSpaceOnUse" x1="751.5448" y1="287.6515" x2="734.9556" y2="232.9363">
			<stop  offset="0" style="stop-color:#A22B25"/>
			<stop  offset="1" style="stop-color:#C0423C"/>
		</linearGradient>
		<path style="fill:url(#SVGID_00000018927351424512515120000006635174023576937369_);" d="M744,236.1c4.2,17.3,3.7,30.2,3.1,36.3
			c-0.2,2.3-2.1,4.1-4.4,4.3c-2.6,0.2-6.2,0.4-9.5,0.6c-3.5,0.2-7.5-2-10.1-3.9c-1.3-1-3.1,0.5-2.3,2c2,3.8,6.9,7.2,10.4,9.2
			c1.2,0.7,1,2.6-0.4,3l-14.7,4.2c24.1,22.7,40-2.7,40-2.7c10.6-16.4,16.1-32.5,18.1-47.6C764.4,231.6,750,234.4,744,236.1z"/>
		<g>
			
				<linearGradient id="SVGID_00000123401978704933628250000014682522987140113081_" gradientUnits="userSpaceOnUse" x1="-1533.3391" y1="-2886.0022" x2="-1547.1335" y2="-2931.4998" gradientTransform="matrix(-0.7552 -0.6555 -0.6555 0.7552 -2403.0244 1273.5063)">
				<stop  offset="0" style="stop-color:#A22B25"/>
				<stop  offset="1" style="stop-color:#C0423C"/>
			</linearGradient>
			<path style="fill:url(#SVGID_00000123401978704933628250000014682522987140113081_);" d="M657.6,66.1c-0.4,0.5-15.7,40-15.7,40
				l22.7,8.3L684.7,79C684.7,79,664.7,58,657.6,66.1z"/>
			<path d="M675.2,80.9c0.5,1,0.5,2.1,0,3.1l-9,19.1c-0.1,0.3-0.3,0.6-0.5,0.8c-1.2,1.3-5.2,5.3-9.1,0.9c-3.3-3.7-6.4-7.1-9.5-8.4
				c-1.8-0.7-3.8,0.2-4.5,2c-1.4,3.7-4.1,11.2-5.6,18.3c-0.4,1.8,0.7,3.5,2.4,4c4.6,1.3,13.6,3.7,21.4,4c1.3,0,2.5-0.6,3.1-1.7
				c2.9-4.9,10.9-18.5,13.8-22c2.7-3.2,8.2-2.7,10.8-2.2c1,0.2,1.9-0.1,2.7-0.6c2.3-1.8,6.3-5.9,1.7-11.9c-1.2-1.5-0.9-3.6,0.6-4.8
				c2.6-2.1,5.3-5.9,1.8-11.1c-3.5-5.3-8.7-5.3-12.2-4.5c-1.6,0.4-3.2-0.3-4-1.7c-0.3-0.6-0.9-1.1-1.9-1.2c-5.1-0.5-1.9-6.8-3.6-9.7
				c-2.3-4.1-7.5-1.2-10,1.3c-1.4,1.4-2.6,3-4,4.4c-2.2,2.1-5.1,3.7-8.1,4.3c-0.5,0.1-1,0.2-1.3,0.5c-0.5,0.5-0.5,1.3-0.3,1.9
				c0.3,0.6,0.8,1.1,1.2,1.6c4.1,3.8,9,5.8,14.6,6C670.7,73.3,673.9,78.3,675.2,80.9z"/>
			
				<linearGradient id="SVGID_00000062912230685660652950000004416277839139194796_" gradientUnits="userSpaceOnUse" x1="-1560.3104" y1="-2899.7612" x2="-1565.1693" y2="-2915.7871" gradientTransform="matrix(-0.7552 -0.6555 -0.6555 0.7552 -2403.0244 1273.5063)">
				<stop  offset="0" style="stop-color:#A22B25"/>
				<stop  offset="1" style="stop-color:#C0423C"/>
			</linearGradient>
			<path style="fill:url(#SVGID_00000062912230685660652950000004416277839139194796_);" d="M673.4,107.3c0,0,3.8-11.9,9.2-12
				c5.4-0.1,10.1,4.8,4.1,11.4C679.3,114.9,673.4,107.3,673.4,107.3z"/>
		</g>
		
			<linearGradient id="SVGID_00000087375869197063871480000008315478138009752210_" gradientUnits="userSpaceOnUse" x1="1642.0771" y1="-786.6174" x2="1617.134" y2="-738.5563" gradientTransform="matrix(0.9403 0.3403 -0.3403 0.9403 -1064.5151 187.6733)">
			<stop  offset="0" style="stop-color:#09005D"/>
			<stop  offset="1" style="stop-color:#1A0F91"/>
		</linearGradient>
		<path style="fill:url(#SVGID_00000087375869197063871480000008315478138009752210_);" d="M650.7,62.6c20.4-34.4,67.2,0,43.3,28.6
			C677.8,79.3,659.6,61.8,650.7,62.6z"/>
		
			<linearGradient id="SVGID_00000112626273694948000000000006106815528613866389_" gradientUnits="userSpaceOnUse" x1="705.3828" y1="-25.9524" x2="680.4398" y2="22.1087">
			<stop  offset="0" style="stop-color:#09005D"/>
			<stop  offset="1" style="stop-color:#1A0F91"/>
		</linearGradient>
		<path style="fill:url(#SVGID_00000112626273694948000000000006106815528613866389_);" d="M679.1,78.9l-33.5-2.7
			c-0.9-0.1-1.6-0.6-2-1.3c-2.7-5.6-7-9.2-12.4-11.4c-0.7-0.3-0.5-1.3,0.2-1.3l20.6-0.4c0,0,0,0,0.1,0c10.2,1.3,19,7.9,27.2,16.4
			C679.8,78.5,679.5,79,679.1,78.9z"/>
	</g>
	<g>
		
			<linearGradient id="SVGID_00000113342344466886739560000000632415502540749725_" gradientUnits="userSpaceOnUse" x1="377.7258" y1="723.0835" x2="866.4891" y2="723.0835" gradientTransform="matrix(-1 0 0 1 1247.0219 0)">
			<stop  offset="0" style="stop-color:#4F52FF"/>
			<stop  offset="1" style="stop-color:#4042E2"/>
		</linearGradient>
		<path style="fill:url(#SVGID_00000113342344466886739560000000632415502540749725_);" d="M434.9,412.1l377.3,6.3
			c20.8,0.3,37.7,17,38.4,37.8l18.7,547.5c0.6,16.3-12.5,29.8-28.8,29.8l-432.6,0.6c-15.3,0-27.7-12.5-27.4-27.8l9.3-550.5
			C390.2,431.2,410.4,411.7,434.9,412.1z"/>
		<path class="st30" d="M471.3,1026L471.3,1026l-48.4-1.4c-16.3-0.5-29.3-14.1-29-30.4l1.2-73.1c0-0.7,0.6-1.2,1.3-1.2
			c0.7,0,1.2,0.6,1.2,1.3l-1.2,73.1c-0.3,14.9,11.7,27.5,26.6,27.9l48.4,1.4c0.7,0,1.2,0.6,1.2,1.3
			C472.5,1025.5,472,1026.1,471.3,1026z"/>
		<path class="st30" d="M396.7,899.8c-0.7,0-1.2-0.6-1.2-1.3l0.2-11.8c0-0.7,0.6-1.2,1.3-1.2c0,0,0,0,0,0c0.7,0,1.2,0.6,1.2,1.3
			l-0.2,11.8C397.9,899.2,397.4,899.8,396.7,899.8C396.7,899.8,396.7,899.8,396.7,899.8z"/>
		<g>
			<path class="st28" d="M436.1,407.7c51.4,7.9,228.2,32.4,374.9,23.7c6.7-0.4,12.4,4.8,12.6,11.5l20,550
				c0.3,7.5-5.6,13.9-13.1,14.2c-61.7,2.6-315.6,12.4-406,1.4c-5.5-0.7-9.6-5.4-9.5-10.9l6.3-577.2
				C421.4,412.4,428.4,406.5,436.1,407.7z"/>
			<path class="st30" d="M441.4,422c49.5,7.6,219.6,31.2,360.8,22.8c6.4-0.4,11.9,4.6,12.2,11l19.2,529.2
				c0.3,7.3-5.4,13.4-12.6,13.7c-59.3,2.5-303.8,12-390.7,1.4c-5.3-0.6-9.2-5.2-9.2-10.5l6.1-555.5C427.2,426.6,434,420.9,441.4,422
				z"/>
			<g class="st56">
				<path class="st10" d="M797.4,491.2c2,0,3.6-1.6,3.5-3.6l0-0.3c-0.1-2-1.8-3.7-3.9-3.8l-320.2-7.9c-2-0.1-2.7,1.2-1.4,2.8
					l3.4,4.5c1.2,1.6,3.9,2.9,5.9,3L797.4,491.2z"/>
			</g>
			<g class="st56">
				<path class="st10" d="M476.4,496.8c-2-0.1-2.7,1.2-1.4,2.8l3.4,4.5c1.2,1.6,3.9,2.9,5.9,3l312.7,5.3c2,0,3.6-1.6,3.5-3.6l0-0.3
					c-0.1-2-1.8-3.7-3.9-3.8L476.4,496.8z"/>
			</g>
			<path class="st10" d="M528.4,689.8c0,0-0.1,0-0.1,0l-42.5,0.3c-6.1,0-11.2-4.1-11.9-9.6l-4.3-35.6c-0.3-2.1,0.4-4.2,1.8-5.9
				c1.6-1.9,3.9-3.1,6.5-3.3l0,0c3.6-0.3,8.5-0.8,13.9-1.3c11.8-1.2,25.2-2.5,33-2.8c0.1,0,0.1,0,0.2,0c5.6-0.1,10.5,3.3,11.9,8.2
				c2.3,8.2,2.4,23.7,2.2,40.2C539.2,685.2,534.4,689.7,528.4,689.8z M478.2,639c-1.7,0.1-3.2,0.9-4.1,2.1c-0.8,1-1.1,2.2-1,3.3
				l4.3,35.6c0.5,3.8,4.1,6.6,8.4,6.6l42.5-0.3c0,0,0.1,0,0.1,0c4.1-0.1,7.4-3,7.4-6.5c0.2-16.2,0.1-31.5-2.1-39.2
				c-1-3.4-4.7-5.9-8.7-5.7c-7.7,0.2-21.6,1.6-32.8,2.7C486.8,638.2,481.8,638.7,478.2,639L478.2,639z"/>
			<path class="st57" d="M482.8,642.5c8.9-0.7,28.3-3,37.5-3.3c3.9-0.1,7.3,2.2,8.3,5.6c1.9,6.5,1.8,19.6,1.7,31.7
				c0,3.6-3.3,6.6-7.4,6.6l-33.9,0.2c-4.2,0-7.7-2.8-8.1-6.5l-3.4-28.4C477.1,645.4,479.5,642.8,482.8,642.5z"/>
			<g class="st56">
				<path class="st10" d="M565.3,652.2c-2,0-3.2,1.6-2.7,3.5l3.9,14c0.5,2,2.7,3.5,4.7,3.5l213.4-3.3c2,0,3.6-1.7,3.5-3.7l-0.3-8.5
					c-0.1-2-1.8-3.7-3.8-3.7L565.3,652.2z"/>
			</g>
			<path class="st10" d="M530.9,594.4c0,0-0.1,0-0.1,0l-42.5,0.3c-6.1,0-11.2-4.1-11.9-9.6l-4.3-35.6c-0.3-2.1,0.4-4.2,1.8-5.9
				c1.6-1.9,3.9-3.1,6.5-3.3l0,0c3.6-0.3,8.5-0.8,13.9-1.3c11.8-1.2,25.2-2.5,33-2.8c0.1,0,0.1,0,0.2,0c5.6-0.1,10.5,3.3,11.9,8.2
				c2.3,8.2,2.4,23.7,2.2,40.2C541.7,589.9,536.8,594.3,530.9,594.4z M480.7,543.7c-1.7,0.1-3.2,0.9-4.1,2.1c-0.8,1-1.1,2.2-1,3.3
				l4.3,35.6c0.5,3.8,4.1,6.6,8.4,6.6l42.5-0.3c0,0,0.1,0,0.1,0c4.1-0.1,7.4-3,7.4-6.5c0.2-16.2,0.1-31.5-2.1-39.2
				c-1-3.4-4.7-5.9-8.7-5.7c-7.7,0.2-21.6,1.6-32.8,2.7C489.2,542.9,484.3,543.4,480.7,543.7L480.7,543.7z"/>
			<path class="st57" d="M485.3,547.2c8.9-0.7,28.3-3,37.5-3.3c3.9-0.1,7.3,2.2,8.3,5.6c1.9,6.5,1.8,19.6,1.7,31.7
				c0,3.6-3.3,6.6-7.4,6.6l-33.9,0.2c-4.2,0-7.7-2.8-8.1-6.5l-3.4-28.4C479.6,550.1,482,547.4,485.3,547.2z"/>
			<g class="st56">
				<path class="st10" d="M567.8,556.9c-2,0-3.2,1.6-2.7,3.5l3.9,14c0.5,2,2.7,3.5,4.7,3.5l213.4-3.3c2,0,3.6-1.7,3.5-3.7l-0.3-8.5
					c-0.1-2-1.8-3.7-3.8-3.7L567.8,556.9z"/>
			</g>
			<path class="st10" d="M529.8,780.8c0,0-0.1,0-0.1,0l-42.5,0.3c-6.1,0-11.2-4.1-11.9-9.6l-4.3-35.6c-0.3-2.1,0.4-4.2,1.8-5.9
				c1.6-1.9,3.9-3.1,6.5-3.3l0,0c3.6-0.3,8.5-0.8,13.9-1.3c11.8-1.2,25.2-2.5,33-2.8c0.1,0,0.1,0,0.2,0c5.6-0.1,10.5,3.3,11.9,8.2
				c2.3,8.2,2.4,23.7,2.2,40.2C540.6,776.2,535.8,780.7,529.8,780.8z M479.6,730c-1.7,0.1-3.2,0.9-4.1,2.1c-0.8,1-1.1,2.2-1,3.3
				l4.3,35.6c0.5,3.8,4.1,6.6,8.4,6.6l42.5-0.3c0,0,0.1,0,0.1,0c4.1-0.1,7.4-3,7.4-6.5c0.2-16.2,0.1-31.5-2.1-39.2
				c-1-3.4-4.7-5.9-8.7-5.7c-7.7,0.2-21.6,1.6-32.8,2.7C488.2,729.2,483.2,729.7,479.6,730L479.6,730z"/>
			<path class="st57" d="M484.3,733.5c8.9-0.7,28.3-3,37.5-3.3c3.9-0.1,7.3,2.2,8.3,5.6c1.9,6.5,1.8,19.6,1.7,31.7
				c0,3.6-3.3,6.6-7.4,6.6l-33.9,0.2c-4.2,0-7.7-2.8-8.1-6.5l-3.4-28.4C478.5,736.4,481,733.8,484.3,733.5z"/>
			<g class="st56">
				<path class="st10" d="M566.7,743.2c-2,0-3.2,1.6-2.7,3.5l3.9,14c0.5,2,2.7,3.5,4.7,3.5l213.4-3.3c2,0,3.6-1.7,3.5-3.7l-0.3-8.5
					c-0.1-2-1.8-3.7-3.8-3.7L566.7,743.2z"/>
			</g>
			<path class="st10" d="M527.2,868.2c0,0-0.1,0-0.1,0l-42.5,0.3c-6.1,0-11.2-4.1-11.9-9.6l-4.3-35.6c-0.3-2.1,0.4-4.2,1.8-5.9
				c1.6-1.9,3.9-3.1,6.5-3.3l0,0c3.6-0.3,8.5-0.8,13.9-1.3c11.2-1.1,25.2-2.5,33.1-2.8c5.6-0.1,10.7,3.2,12.1,8.2
				c2.3,8.2,2.4,23.7,2.2,40.2C538,863.7,533.2,868.1,527.2,868.2z M477,817.5c-1.7,0.1-3.2,0.9-4.1,2.1c-0.8,1-1.1,2.2-1,3.3
				l4.3,35.6c0.5,3.8,4.1,6.6,8.4,6.6l42.5-0.3c4-0.1,7.5-3,7.5-6.5c0.2-16.2,0.1-31.5-2.1-39.2c-1-3.4-4.7-5.8-8.7-5.7
				c-7.7,0.2-21.6,1.6-32.8,2.7C485.6,816.7,480.6,817.2,477,817.5L477,817.5z"/>
			<path class="st57" d="M481.6,821c8.9-0.7,28.3-3,37.5-3.3c3.9-0.1,7.3,2.2,8.3,5.6c1.9,6.5,1.8,19.6,1.7,31.7
				c0,3.6-3.3,6.6-7.4,6.6l-33.9,0.2c-4.2,0-7.7-2.8-8.1-6.5l-3.4-28.4C475.9,823.9,478.3,821.2,481.6,821z"/>
			<g class="st56">
				<path class="st10" d="M564.1,830.7c-2,0-3.2,1.6-2.7,3.5l3.9,14c0.5,2,2.7,3.5,4.7,3.5l213.4-3.3c2,0,3.6-1.7,3.5-3.7l-0.3-8.5
					c-0.1-2-1.8-3.7-3.8-3.7L564.1,830.7z"/>
			</g>
			<g class="st56">
				<path class="st10" d="M584.7,920.5c-2,0-3.3,1.6-2.8,3.5l3.5,14c0.5,2,2.6,3.5,4.6,3.5l190-3c2,0,3.6-1.7,3.6-3.7l-0.3-8.5
					c-0.1-2-1.8-3.7-3.8-3.7L584.7,920.5z"/>
			</g>
			<g class="st56">
				<path class="st10" d="M480.4,926.5c-2-0.1-3.5,1.5-3.2,3.5l1.3,10.6c0.2,2,2.1,3.6,4.1,3.6l67.4-1c2,0,3.6-1.7,3.6-3.7l-0.1-6.1
					c0-2-1.7-3.8-3.8-3.8L480.4,926.5z"/>
			</g>
		</g>
		
			<linearGradient id="SVGID_00000069380398063726528740000007719054180911921800_" gradientUnits="userSpaceOnUse" x1="-150.5269" y1="1309.5438" x2="-321.2785" y2="1534.1636" gradientTransform="matrix(-0.8398 -0.543 -0.543 0.8398 1208.6659 -918.5547)">
			<stop  offset="0" style="stop-color:#09005D"/>
			<stop  offset="1" style="stop-color:#1A0F91"/>
		</linearGradient>
		<path style="fill:url(#SVGID_00000069380398063726528740000007719054180911921800_);" d="M648.2,341.1
			c-13.5-9.7-25.3-9.7-33.7-7.4c-7.6,2.1-12.7,9.4-12.1,17.3l2.9,39.3l42.7,4.5C648.1,394.8,674.6,360.1,648.2,341.1z M628.9,372.4
			c-5.9-0.1-10.6-5-10.5-10.9c0.1-5.9,5-10.6,10.9-10.5c5.9,0.1,10.6,5,10.5,10.9C639.6,367.8,634.8,372.5,628.9,372.4z"/>
		<g>
			<path class="st30" d="M609.1,374.8c-0.7-0.3-1.3-1-1.4-1.8l-0.5-6.3c-0.1-1.2,0.8-2.2,2-2.3c1.2-0.1,2.2,0.8,2.3,2l0.5,6.3
				c0.1,1.2-0.8,2.2-2,2.3C609.7,375,609.4,374.9,609.1,374.8z M608.2,362.5c-0.7-0.3-1.3-1-1.4-1.8l-0.4-4.8
				c-0.6-8.1,4.6-15.5,12.3-17.6c5.3-1.5,10.8-1.6,16.2-0.4c1.1,0.3,1.9,1.4,1.6,2.5c-0.3,1.1-1.4,1.9-2.5,1.6
				c-4.7-1.1-9.5-0.9-14.1,0.3c-5.8,1.6-9.7,7.2-9.2,13.2l0.4,4.8c0.1,1.2-0.8,2.2-2,2.3C608.8,362.7,608.5,362.6,608.2,362.5z"/>
		</g>
		
			<linearGradient id="SVGID_00000001646602006770860600000006421085878655242652_" gradientUnits="userSpaceOnUse" x1="-2166.0403" y1="3785.6577" x2="-2339.6028" y2="4013.9751" gradientTransform="matrix(0.9999 1.680000e-02 -1.680000e-02 0.9999 2939.4707 -3448.6365)">
			<stop  offset="0" style="stop-color:#09005D"/>
			<stop  offset="1" style="stop-color:#1A0F91"/>
		</linearGradient>
		<path style="fill:url(#SVGID_00000001646602006770860600000006421085878655242652_);" d="M546.5,414.7l0.3-19.7
			c0.1-6.8,5.9-12.2,12.7-11.8l136,7c6,0.3,10.8,5.2,11.1,11.2l0.8,19L546.5,414.7z"/>
		<path class="st30" d="M591.8,391.3c-0.7,0-1.2-0.6-1.2-1.3c0-0.7,0.6-1.2,1.3-1.2l5.9,0.1c0.7,0,1.2,0.6,1.2,1.3
			c0,0.7-0.6,1.2-1.3,1.2L591.8,391.3C591.8,391.3,591.8,391.3,591.8,391.3z"/>
		<path class="st30" d="M553.2,409.6c-0.8-0.3-1.4-1.1-1.4-2l0.1-8c0.1-3.3,1.4-6.3,3.7-8.6c2.4-2.3,5.5-3.5,8.7-3.5l21.5,0.4
			c1.2,0,2.1,1,2.1,2.2c0,1.2-1,2.1-2.2,2.1l-21.5-0.4c-4.4-0.1-8.1,3.5-8.2,7.9l-0.1,8c0,1.2-1,2.1-2.2,2.1
			C553.7,409.7,553.4,409.6,553.2,409.6z"/>
		
			<linearGradient id="SVGID_00000006679220773012729540000017052130262770849415_" gradientUnits="userSpaceOnUse" x1="-2187.9128" y1="3799.6245" x2="-2307.7532" y2="4019.6758" gradientTransform="matrix(0.9999 1.680000e-02 -1.680000e-02 0.9999 2939.4707 -3448.6365)">
			<stop  offset="0" style="stop-color:#09005D"/>
			<stop  offset="1" style="stop-color:#1A0F91"/>
		</linearGradient>
		<path style="fill:url(#SVGID_00000006679220773012729540000017052130262770849415_);" d="M504,406.7l238,4
			c8.6,0.1,15.8,6.4,17.1,14.9l0.2,1.2c1.4,9.3-5.8,17.6-15.2,17.4l-244.2-4.1c-5.6-0.1-10-4.9-9.6-10.5l0.7-10.9
			C491.4,411.9,497.1,406.6,504,406.7z"/>
		
			<linearGradient id="SVGID_00000093886882841945150890000002335051049821171356_" gradientUnits="userSpaceOnUse" x1="-2619.1416" y1="3707.835" x2="-2809.7859" y2="4033.2197" gradientTransform="matrix(0.9905 -0.1382 0.1382 0.9905 2652.6377 -3548.5452)">
			<stop  offset="0" style="stop-color:#FF928E"/>
			<stop  offset="1" style="stop-color:#FE7062"/>
		</linearGradient>
		<path style="fill:url(#SVGID_00000093886882841945150890000002335051049821171356_);" d="M483.6,654.5L483.6,654.5
			c2.5-2,6.2-1.5,8.1,1l9.1,12.1c0.9,1.2,2.8,0.9,3.2-0.6l12.5-42.8c0.6-2.1,3.7-1.9,4,0.3c1.5,12.3,1.5,36.2-15.4,58.6
			c0,0-11.4-2.7-22.8-20.7C480.6,659.9,481.2,656.4,483.6,654.5z"/>
		
			<linearGradient id="SVGID_00000026874348591370842480000015887001249955976349_" gradientUnits="userSpaceOnUse" x1="-2601.8154" y1="3607.8042" x2="-2792.4595" y2="3933.189" gradientTransform="matrix(0.9905 -0.1382 0.1382 0.9905 2652.6377 -3548.5452)">
			<stop  offset="0" style="stop-color:#FF928E"/>
			<stop  offset="1" style="stop-color:#FE7062"/>
		</linearGradient>
		<path style="fill:url(#SVGID_00000026874348591370842480000015887001249955976349_);" d="M486.9,553L486.9,553
			c2.5-2,6.2-1.5,8.1,1l9.1,12.1c0.9,1.2,2.8,0.9,3.2-0.6l12.5-42.8c0.6-2.1,3.7-1.9,4,0.3c1.5,12.3,1.5,36.2-15.4,58.6
			c0,0-11.4-2.7-22.8-20.7C484,558.4,484.5,555,486.9,553z"/>
		
			<linearGradient id="SVGID_00000103952031595265777690000005983252643453758118_" gradientUnits="userSpaceOnUse" x1="-2626.4294" y1="3795.3521" x2="-2817.0735" y2="4120.7368" gradientTransform="matrix(0.9905 -0.1382 0.1382 0.9905 2652.6377 -3548.5452)">
			<stop  offset="0" style="stop-color:#FF928E"/>
			<stop  offset="1" style="stop-color:#FE7062"/>
		</linearGradient>
		<path style="fill:url(#SVGID_00000103952031595265777690000005983252643453758118_);" d="M488.5,742.2L488.5,742.2
			c2.5-2,6.2-1.5,8.1,1l9.1,12.1c0.9,1.2,2.8,0.9,3.2-0.6l12.5-42.8c0.6-2.1,3.7-1.9,4,0.3c1.5,12.3,1.5,36.2-15.4,58.6
			c0,0-11.4-2.7-22.8-20.7C485.5,747.6,486.1,744.1,488.5,742.2z"/>
		
			<linearGradient id="SVGID_00000150817948034892279820000012838450799035831466_" gradientUnits="userSpaceOnUse" x1="-2641.6931" y1="3877.4612" x2="-2832.3372" y2="4202.8457" gradientTransform="matrix(0.9905 -0.1382 0.1382 0.9905 2652.6377 -3548.5452)">
			<stop  offset="0" style="stop-color:#FF928E"/>
			<stop  offset="1" style="stop-color:#FE7062"/>
		</linearGradient>
		<path style="fill:url(#SVGID_00000150817948034892279820000012838450799035831466_);" d="M484.7,825.7L484.7,825.7
			c2.5-2,6.2-1.5,8.1,1l9.1,12.1c0.9,1.2,2.8,0.9,3.2-0.6l12.5-42.8c0.6-2.1,3.7-1.9,4,0.3c1.5,12.3,1.5,36.2-15.4,58.6
			c0,0-11.4-2.7-22.8-20.7C481.7,831,482.3,827.6,484.7,825.7z"/>
	</g>
	<g>
		<g>
			
				<linearGradient id="SVGID_00000116943869041167751850000011156293576467795620_" gradientUnits="userSpaceOnUse" x1="3690.6309" y1="450.3271" x2="3369.9905" y2="860.5583" gradientTransform="matrix(-1 0 0 1 4399.1392 0)">
				<stop  offset="0" style="stop-color:#FEBBBA"/>
				<stop  offset="1" style="stop-color:#FF928E"/>
			</linearGradient>
			<path style="fill:url(#SVGID_00000116943869041167751850000011156293576467795620_);" d="M735.8,608.5l13,7
				c15.6,9.5,29.6,14.6,42.2,16.4c39.3,5.9,65-18.9,84.1-34c25.2-19.9,44.8-10.2,44.8-10.2l-26.9,51.3
				c-40.2,37.9-81.3,29.5-107.3,17.2c-16.5-7.8-26.9-17.2-26.9-17.2C729.3,621.5,735.8,608.5,735.8,608.5z"/>
			
				<linearGradient id="SVGID_00000049935135983595504630000003276686644972623236_" gradientUnits="userSpaceOnUse" x1="3727.4866" y1="557.5263" x2="3546.8914" y2="788.582" gradientTransform="matrix(-1 0 0 1 4399.1392 0)">
				<stop  offset="0" style="stop-color:#FEBBBA"/>
				<stop  offset="1" style="stop-color:#FF928E"/>
			</linearGradient>
			<path style="fill:url(#SVGID_00000049935135983595504630000003276686644972623236_);" d="M697.4,626.9c0.8-2.8,2.9-5.1,5.6-6.2
				l26.5-10.6c0,0,0.4-3.4-5.6-5.7c-6-2.3-4.6-9-4.6-9s8.2,3.7,20.2,9.7c6.9,3.4,10.7,9.4,12.7,13.9l-6.8,9
				c-16.3,4.9-32.8,5.8-49.5,3.9L697.4,626.9z"/>
		</g>
		
			<linearGradient id="SVGID_00000130616324162351782530000004691796882217062544_" gradientUnits="userSpaceOnUse" x1="-5153.7266" y1="976.699" x2="-5141.8755" y2="1034.3389" gradientTransform="matrix(1 0 0 1 6038.5728 0)">
			<stop  offset="0" style="stop-color:#4F52FF"/>
			<stop  offset="1" style="stop-color:#4042E2"/>
		</linearGradient>
		<path style="fill:url(#SVGID_00000130616324162351782530000004691796882217062544_);" d="M925.7,1000.9c0,0,2,11.4,3,22.7
			c0.4,4.4-3,8.2-7.4,8.4c-15,0.6-47.2,1.8-58.7,1.3c-1.7-0.1-2.9-1.9-2.2-3.5l0,0c0.5-1.4,1.6-2.4,2.9-3.1l53.1-24.4L925.7,1000.9z
			"/>
		
			<linearGradient id="SVGID_00000000912981199002228220000004468633590990441390_" gradientUnits="userSpaceOnUse" x1="6497.5742" y1="1000.8895" x2="6514.8535" y2="1000.8895" gradientTransform="matrix(-1 0 0 1 7424.9482 0)">
			<stop  offset="0" style="stop-color:#FEBBBA"/>
			<stop  offset="1" style="stop-color:#FF928E"/>
		</linearGradient>
		<path style="fill:url(#SVGID_00000000912981199002228220000004468633590990441390_);" d="M927.4,994.2l-1.6,13.6
			c0,0-9.3,4.3-15.7-0.5l3.9-15.2L927.4,994.2z"/>
		
			<linearGradient id="SVGID_00000057144195292312879870000005391207488598675390_" gradientUnits="userSpaceOnUse" x1="6418.2139" y1="541.6448" x2="6504.4277" y2="916.3758" gradientTransform="matrix(-1 0 0 1 7424.9482 0)">
			<stop  offset="0" style="stop-color:#09005D"/>
			<stop  offset="1" style="stop-color:#1A0F91"/>
		</linearGradient>
		<path style="fill:url(#SVGID_00000057144195292312879870000005391207488598675390_);" d="M930,728.8c0.7,3.7-1.3,193.5-19.9,274.4
			c-0.3,1.3-2.2,3.9-1.6,5.1c1.6,2.8,13.5,2,20.2,2.2c2.1,0.1,3.2-2.4,3.8-4.4c5.3-18.8,30.8-112.9,34.2-202.8
			c3.7-100.4,0-3.4,0-3.4l1.7-63.6L930,728.8z"/>
		
			<linearGradient id="SVGID_00000158724496616601718410000001015125885514998161_" gradientUnits="userSpaceOnUse" x1="-5058.7227" y1="979.7012" x2="-5059.2612" y2="1036.8026" gradientTransform="matrix(1 0 0 1 6038.5728 0)">
			<stop  offset="0" style="stop-color:#4F52FF"/>
			<stop  offset="1" style="stop-color:#4042E2"/>
		</linearGradient>
		<path style="fill:url(#SVGID_00000158724496616601718410000001015125885514998161_);" d="M986.8,1006.9c0,0,3.2,5.8,6.3,21.1
			c0.6,2.8-1.4,5.4-4.2,5.7c-5,0.5-12.6,1.1-18.7,1.1c-2.8,0-5-2.5-4.7-5.3c0.7-5.6,2.8-14.7,9.3-21.9L986.8,1006.9z"/>
		
			<linearGradient id="SVGID_00000073002072965016039570000006409657172468830848_" gradientUnits="userSpaceOnUse" x1="6435.2988" y1="1000.0033" x2="6450.2183" y2="1000.0033" gradientTransform="matrix(-1 0 0 1 7424.9482 0)">
			<stop  offset="0" style="stop-color:#FEBBBA"/>
			<stop  offset="1" style="stop-color:#FF928E"/>
		</linearGradient>
		<path style="fill:url(#SVGID_00000073002072965016039570000006409657172468830848_);" d="M989.6,989.3l-3.8,20.6
			c0,0-3.7,2.8-11.1,0.8l1.8-22.2L989.6,989.3z"/>
		
			<linearGradient id="SVGID_00000054975652885798434350000000613035587613037207_" gradientUnits="userSpaceOnUse" x1="6389.5439" y1="541.5661" x2="6476.8682" y2="921.1226" gradientTransform="matrix(-1 0 0 1 7424.9482 0)">
			<stop  offset="0" style="stop-color:#09005D"/>
			<stop  offset="1" style="stop-color:#1A0F91"/>
		</linearGradient>
		<path style="fill:url(#SVGID_00000054975652885798434350000000613035587613037207_);" d="M998.7,736.2
			c15.2,95.9-2.2,244.5-8.4,272.1c-0.4,1.7-1.7,3-3.3,3.3c-2.8,0.5-7.4,0.9-11.9-0.5c-1.6-0.5-2.7-1.9-2.7-3.6
			c-0.8-22.3,0.7-159.5-13.5-213.7c-0.7-2.7-2.3-5.1-4.6-6.8l-23.4-19l-0.4-41L998.7,736.2z"/>
		
			<linearGradient id="SVGID_00000071548550744152875050000005464314040436835997_" gradientUnits="userSpaceOnUse" x1="3670.8228" y1="868.1456" x2="3867.4609" y2="1055.96" gradientTransform="matrix(-1 0 0 1 4399.1392 0)">
			<stop  offset="0" style="stop-color:#4F52FF"/>
			<stop  offset="1" style="stop-color:#4042E2"/>
		</linearGradient>
		<path style="fill:url(#SVGID_00000071548550744152875050000005464314040436835997_);" d="M911.5,582.2
			c40.1-0.7,84.4,10.5,84.4,10.5c9.9,57.6,5.9,121.3,3.8,142.3c-0.4,4.3,1.9,8.9-2.4,9.6c-21,3.4-54-0.1-64.3-3
			c-3.7-1.1-3.1-5.1-3.9-8.9c-6.9-33-26.6-105.9-26.6-105.9c-9.5,12.3-23,29.5-42.9,34c10.1-11.8-9.3-36.4-7.2-45.3
			C870.4,595.4,899.1,582.4,911.5,582.2z"/>
		
			<linearGradient id="SVGID_00000096752647445609617460000010466345799270161319_" gradientUnits="userSpaceOnUse" x1="6459.9692" y1="570.5982" x2="6498.814" y2="570.5982" gradientTransform="matrix(-1 0 0 1 7424.9482 0)">
			<stop  offset="0" style="stop-color:#FEBBBA"/>
			<stop  offset="1" style="stop-color:#FF928E"/>
		</linearGradient>
		<path style="fill:url(#SVGID_00000096752647445609617460000010466345799270161319_);" d="M952.1,549.6l12.8,36.9
			c0.2,0.6,0,1.3-0.6,1.6c-3.5,1.9-16,7.5-31.1-2.1c-1.6-1-2.6-2.6-2.9-4.5l-4.1-32H952.1z"/>
		<g>
			
				<linearGradient id="SVGID_00000137108972687547490560000009971751876201147540_" gradientUnits="userSpaceOnUse" x1="-1077.2307" y1="2468.3633" x2="-1091.7466" y2="2420.4861" gradientTransform="matrix(-0.746 -0.6659 -0.6659 0.746 1756.9642 -2012.8412)">
				<stop  offset="0" style="stop-color:#FEBBBA"/>
				<stop  offset="1" style="stop-color:#FF928E"/>
			</linearGradient>
			<path style="fill:url(#SVGID_00000137108972687547490560000009971751876201147540_);" d="M924.3,515.4c0,0-14,26.4-12.2,37.1
				c1.8,10.7,19.2,9.9,34.4,1.2l10.6-28.5L924.3,515.4z"/>
			<path d="M945.8,539.7c-0.6-0.3-0.8-1-0.5-1.6c1.1-1.7,3.2-5.2,3.9-8.3c0,0,2.5-1.6-6.4-3.8c-4.9-1.2-13.5-2.1-17.3-5.6
				c-4.2-3.9,3.6-11.3,6.9-13.3c4.3-2.6,9.6-4.2,14.5-2.9c2.4,0.6,4.5,1.9,6.6,3.1c3.6,2.1,7.3,4.4,9.6,7.9c1.5,2.3,2.2,4.9,3,7.5
				c1,3.7,1.9,7.6,1.8,11.4c-0.5,10.3-12.6,19.6-22.3,20.7c-0.8,0.1-1.4-0.7-1.2-1.5l4-11.6c0.2-0.5-0.1-1.1-0.6-1.4L945.8,539.7z"
				/>
			
				<linearGradient id="SVGID_00000127042758095533016530000002834190852394491051_" gradientUnits="userSpaceOnUse" x1="-1092.0696" y1="2468.1404" x2="-1105.1298" y2="2425.0647" gradientTransform="matrix(-0.746 -0.6659 -0.6659 0.746 1756.9642 -2012.8412)">
				<stop  offset="0" style="stop-color:#FEBBBA"/>
				<stop  offset="1" style="stop-color:#FF928E"/>
			</linearGradient>
			<path style="fill:url(#SVGID_00000127042758095533016530000002834190852394491051_);" d="M944.2,541.4c0,0,10-6.9,10.7-1.1
				c0.7,5.8-9,8.4-13.8,6.2L944.2,541.4z"/>
		</g>
		<g>
			
				<linearGradient id="SVGID_00000021080880844083191030000016930537044231531659_" gradientUnits="userSpaceOnUse" x1="-4114.7568" y1="2428.9048" x2="-4188.7095" y2="2492.7729" gradientTransform="matrix(1 0 0 1 2850.1655 0)">
				<stop  offset="0" style="stop-color:#09005D"/>
				<stop  offset="1" style="stop-color:#1A0F91"/>
			</linearGradient>
			<path style="fill:url(#SVGID_00000021080880844083191030000016930537044231531659_);" d="M919.2,509
				c20.5-38.7,73.6-3.5,48.9,29.1C949.7,525.8,929,507.6,919.2,509z"/>
		</g>
		
			<linearGradient id="SVGID_00000024697276639341362330000015007970931774087041_" gradientUnits="userSpaceOnUse" x1="4275.0747" y1="500.4135" x2="4201.1221" y2="564.2817" gradientTransform="matrix(-1 0 0 1 5179.7944 0)">
			<stop  offset="0" style="stop-color:#09005D"/>
			<stop  offset="1" style="stop-color:#1A0F91"/>
		</linearGradient>
		<path style="fill:url(#SVGID_00000024697276639341362330000015007970931774087041_);" d="M951.2,525.4l-36.8-1.1
			c-0.9,0-1.8-0.5-2.2-1.4c-3.3-6-8.1-9.7-14.2-11.8c-0.8-0.3-0.6-1.4,0.2-1.4l22.6-1.5c0,0,0.1,0,0.1,0
			c11.2,0.9,21.2,7.6,30.7,16.5C951.9,524.8,951.7,525.4,951.2,525.4z"/>
		
			<linearGradient id="SVGID_00000161623387481789856990000006559893341750543522_" gradientUnits="userSpaceOnUse" x1="975.9002" y1="630.0276" x2="1045.4724" y2="630.0276">
			<stop  offset="0" style="stop-color:#4F52FF"/>
			<stop  offset="1" style="stop-color:#4042E2"/>
		</linearGradient>
		<path style="fill:url(#SVGID_00000161623387481789856990000006559893341750543522_);" d="M991.4,651.4
			c-22.5-25.2-20.2-44.6,5.2-58.6c0,0,42,28.6,48.9,64.8c-7.9,0.6-22.4,2.7-36.5,9.8C1005.8,650.2,991.4,651.4,991.4,651.4z"/>
		
			<linearGradient id="SVGID_00000037683655271829855340000010585272091088222640_" gradientUnits="userSpaceOnUse" x1="8451.624" y1="685.6307" x2="8561.7656" y2="685.6307" gradientTransform="matrix(-1 0 0 1 9498.0547 0)">
			<stop  offset="0" style="stop-color:#FEBBBA"/>
			<stop  offset="1" style="stop-color:#FF928E"/>
		</linearGradient>
		<path style="fill:url(#SVGID_00000037683655271829855340000010585272091088222640_);" d="M942.5,677.3c0,0,47.2,26.7,63.1,3.9
			c3.3-4.7,4.1-9.4,3.3-13.9c14.1-7.1,28.6-9.2,36.5-9.8c2.1,10.9,1,22.5-5.4,34.3c-27.9,51-103.8-2.8-103.8-2.8L942.5,677.3z"/>
		<g>
			
				<linearGradient id="SVGID_00000170984428410656588870000015434428372184498562_" gradientUnits="userSpaceOnUse" x1="4733.7246" y1="522.7369" x2="4653.9873" y2="593.1716" gradientTransform="matrix(-1 0 0 1 5473.2217 0)">
				<stop  offset="0" style="stop-color:#FF928E"/>
				<stop  offset="1" style="stop-color:#FE7062"/>
			</linearGradient>
			<path style="fill:url(#SVGID_00000170984428410656588870000015434428372184498562_);" d="M948.2,711.1l-25.8-89.9
				c-0.3-1-1.2-1.8-2.2-1.9c-4.7-0.5-18.2-2.1-33.8-3.4c-18.8-1.6-40.6-2.9-53.7-1.8c-1.9,0.2-3,2.1-2.2,3.8
				c7.4,15,37.9,76.1,53.2,96.1c0.5,0.7,1.3,1.1,2.1,1l59.8-0.6C947.4,714.4,948.7,712.7,948.2,711.1z"/>
			
				<linearGradient id="SVGID_00000047752130696165823510000015843914510842062009_" gradientUnits="userSpaceOnUse" x1="8621.0586" y1="620.0121" x2="8608.1602" y2="676.6523" gradientTransform="matrix(-1 0 0 1 9498.0547 0)">
				<stop  offset="0" style="stop-color:#FF928E"/>
				<stop  offset="1" style="stop-color:#FE7062"/>
			</linearGradient>
			<path style="fill:url(#SVGID_00000047752130696165823510000015843914510842062009_);" d="M883.8,608l-18.7-3.1
				c-1-0.2-1.8,0.8-1.5,1.7l1.8,5.6c0.2,0.5,0.6,0.8,1.1,0.9l18,2.4c0.9,0.1,1.7-0.7,1.5-1.6l-1.1-4.9
				C884.7,608.5,884.3,608.1,883.8,608z"/>
			
				<linearGradient id="SVGID_00000116921497727978848420000014643809444671566260_" gradientUnits="userSpaceOnUse" x1="8617.7793" y1="642.1606" x2="8611.6113" y2="679.1732" gradientTransform="matrix(-1 0 0 1 9498.0547 0)">
				<stop  offset="0" style="stop-color:#FF928E"/>
				<stop  offset="1" style="stop-color:#FE7062"/>
			</linearGradient>
			<path style="fill:url(#SVGID_00000116921497727978848420000014643809444671566260_);" d="M897.7,623.8l-1.5-8
				c-0.2-0.8-0.8-1.4-1.6-1.5l-37.7-3.8c-1.3-0.1-2.3,1-2,2.3l2.4,10c0.2,0.8,0.9,1.4,1.7,1.4l36.9,1.9
				C897,626.1,898,625,897.7,623.8z"/>
			
				<linearGradient id="SVGID_00000067914402184945527150000018365271709072968633_" gradientUnits="userSpaceOnUse" x1="8553.5879" y1="674.0825" x2="8587.9023" y2="674.0825" gradientTransform="matrix(-1 0 0 1 9498.0547 0)">
				<stop  offset="0" style="stop-color:#FEBBBA"/>
				<stop  offset="1" style="stop-color:#FF928E"/>
			</linearGradient>
			<path style="fill:url(#SVGID_00000067914402184945527150000018365271709072968633_);" d="M942,689.3c0,0,3.6-14.8,2.1-20
				c-1.4-5.2-4.3-12-13.6-10.5c-9.3,1.5-20.4,5.4-20.4,5.4s0.6,6.8,7.7,4.6l-4.4,3.4c0,0,0.6,5.5,6.6,2.5l-4.1,4.5
				c0,0,2.6,4.5,7,1.6C927.3,678.1,929.5,691.1,942,689.3z"/>
		</g>
		<g>
			
				<linearGradient id="SVGID_00000080886244356688013360000005363252353961766044_" gradientUnits="userSpaceOnUse" x1="-6569.0962" y1="564.1303" x2="-6577.5" y2="692.7075" gradientTransform="matrix(1 0 0 1 7544.8276 0)">
				<stop  offset="0" style="stop-color:#4F52FF"/>
				<stop  offset="1" style="stop-color:#4042E2"/>
			</linearGradient>
			<path style="fill:url(#SVGID_00000080886244356688013360000005363252353961766044_);" d="M956.9,633.2c2.9,0.2,27.9,1,27.9,1
				l-1,25.1l-12.9,7.3l-13.9-7.3V633.2z"/>
			
				<linearGradient id="SVGID_00000024694314034066672900000002322977091893520284_" gradientUnits="userSpaceOnUse" x1="-6516.1978" y1="557.4153" x2="-6571.6626" y2="634.7296" gradientTransform="matrix(1 0 0 1 7544.8276 0)">
				<stop  offset="0" style="stop-color:#4F52FF"/>
				<stop  offset="1" style="stop-color:#4042E2"/>
			</linearGradient>
			<polygon style="fill:url(#SVGID_00000024694314034066672900000002322977091893520284_);" points="955,633.2 984.7,634.2 
				986,643.8 970.5,647.9 954,640.5 			"/>
		</g>
	</g>
	<g>
		<g>
			
				<linearGradient id="SVGID_00000134930206839515111180000002012016339859194007_" gradientUnits="userSpaceOnUse" x1="743.7888" y1="767.6224" x2="606.7271" y2="836.1533">
				<stop  offset="0" style="stop-color:#FF928E"/>
				<stop  offset="1" style="stop-color:#FE7062"/>
			</linearGradient>
			<path style="fill:url(#SVGID_00000134930206839515111180000002012016339859194007_);" d="M492.1,1035.6
				c15.3,0.3,27.8-12,27.8-27.3V886.7c0-16-12.8-29-28.8-29.1c-47.9-0.5-146.7-0.5-227.6,6.3c-11,0.9-19.6,10-20,21l-7.6,117.5
				c-0.6,15.5,11.7,28.5,27.3,28.8L492.1,1035.6z"/>
			<path class="st10" d="M492.2,899.9c0.2,10.3-0.1,26.7-0.4,37.3c-0.1,5.5-5,9.7-10.4,9.1l-39.4-4.6c-5.3-0.6-9-5.5-8.2-10.7
				l4.8-32.3c0.7-4.6,4.6-8,9.3-8h34.9C487.9,890.7,492.1,894.8,492.2,899.9z"/>
			<path class="st23" d="M389.1,961.1l-32.9,3.5c-4.6,0.5-8.5-3.3-8.2-7.9l7.2-97.8c13.8-0.4,27.4-0.8,40.5-1v95.8
				C395.8,957.5,392.9,960.7,389.1,961.1z"/>
			<path class="st10" d="M375.7,944.1c-0.1,1.8-1.6,3.1-3.3,3.1c-0.1,0-0.1,0-0.2,0c-1.8-0.1-3.2-1.7-3.1-3.5l5-85.4
				c2.2-0.1,4.4-0.1,6.6-0.2L375.7,944.1z"/>
			<g>
				
					<linearGradient id="SVGID_00000083076862097091186510000008697237435260216195_" gradientUnits="userSpaceOnUse" x1="-1527.9202" y1="896.7912" x2="-1598.4955" y2="999.3459" gradientTransform="matrix(-1 0 0 1 -1066.4536 0)">
					<stop  offset="0" style="stop-color:#09005D"/>
					<stop  offset="1" style="stop-color:#1A0F91"/>
				</linearGradient>
				<path style="fill:url(#SVGID_00000083076862097091186510000008697237435260216195_);" d="M473.9,930.7c0.6,0,1.1-0.4,1.1-1
					l1.7-26.9c0-0.6-0.4-1.1-1-1.2c-0.6,0-1.1,0.4-1.2,1l-1.7,26.9C472.8,930.2,473.3,930.7,473.9,930.7
					C473.9,930.7,473.9,930.7,473.9,930.7z"/>
				
					<linearGradient id="SVGID_00000026878419131779159860000016357910633227478956_" gradientUnits="userSpaceOnUse" x1="-1525.3824" y1="898.5377" x2="-1595.9579" y2="1001.0923" gradientTransform="matrix(-1 0 0 1 -1066.4536 0)">
					<stop  offset="0" style="stop-color:#09005D"/>
					<stop  offset="1" style="stop-color:#1A0F91"/>
				</linearGradient>
				<path style="fill:url(#SVGID_00000026878419131779159860000016357910633227478956_);" d="M470.4,930.7c0.6,0,1.1-0.5,1.1-1.1
					l0.9-27.4c0-0.6-0.5-1.1-1.1-1.1c-0.7,0-1.1,0.5-1.1,1.1l-0.9,27.4C469.3,930.2,469.8,930.7,470.4,930.7
					C470.4,930.7,470.4,930.7,470.4,930.7z"/>
				
					<linearGradient id="SVGID_00000101100799821221301090000004666551042467496342_" gradientUnits="userSpaceOnUse" x1="-1522.3206" y1="900.6447" x2="-1592.896" y2="1003.1995" gradientTransform="matrix(-1 0 0 1 -1066.4536 0)">
					<stop  offset="0" style="stop-color:#09005D"/>
					<stop  offset="1" style="stop-color:#1A0F91"/>
				</linearGradient>
				<path style="fill:url(#SVGID_00000101100799821221301090000004666551042467496342_);" d="M465.7,930.7c-0.6,0-1.1-0.5-1-1.2
					c0.4-9.2,1.3-26.8,1.3-27.4c0-0.6,0.5-1.1,1.1-1.1c0.6,0,1.1,0.5,1.1,1.1c0,0.5-1.1,23-1.3,27.5
					C466.8,930.3,466.3,930.7,465.7,930.7C465.7,930.7,465.7,930.7,465.7,930.7z M465.9,902.2L465.9,902.2L465.9,902.2z"/>
				
					<linearGradient id="SVGID_00000165195596767596349000000008979964433756429247_" gradientUnits="userSpaceOnUse" x1="-1517.0244" y1="904.2895" x2="-1587.5996" y2="1006.8439" gradientTransform="matrix(-1 0 0 1 -1066.4536 0)">
					<stop  offset="0" style="stop-color:#09005D"/>
					<stop  offset="1" style="stop-color:#1A0F91"/>
				</linearGradient>
				<path style="fill:url(#SVGID_00000165195596767596349000000008979964433756429247_);" d="M458.4,931.8c1.2,0,2.2-0.9,2.2-2.1
					c0.9-26.6,0.8-27.2,0.7-27.6c-0.3-1.2-1.5-1.9-2.7-1.5c-1.1,0.3-1.8,1.3-1.6,2.4c0.1,1.6-0.4,17-0.8,26.5
					C456.1,930.8,457.1,931.8,458.4,931.8C458.3,931.8,458.4,931.8,458.4,931.8z"/>
				
					<linearGradient id="SVGID_00000040576572184387260770000004584713446674663057_" gradientUnits="userSpaceOnUse" x1="-1513.5322" y1="906.6927" x2="-1584.1075" y2="1009.2473" gradientTransform="matrix(-1 0 0 1 -1066.4536 0)">
					<stop  offset="0" style="stop-color:#09005D"/>
					<stop  offset="1" style="stop-color:#1A0F91"/>
				</linearGradient>
				<path style="fill:url(#SVGID_00000040576572184387260770000004584713446674663057_);" d="M453.6,930.7c0.6,0,1.1-0.5,1.1-1.1
					v-26.9c0-0.6-0.5-1.1-1.1-1.1c-0.6,0-1.1,0.5-1.1,1.1v26.9C452.5,930.2,453,930.7,453.6,930.7z"/>
				
					<linearGradient id="SVGID_00000163058186559930689620000018103616813286689676_" gradientUnits="userSpaceOnUse" x1="-1511.3643" y1="908.1848" x2="-1581.9391" y2="1010.7386" gradientTransform="matrix(-1 0 0 1 -1066.4536 0)">
					<stop  offset="0" style="stop-color:#09005D"/>
					<stop  offset="1" style="stop-color:#1A0F91"/>
				</linearGradient>
				<path style="fill:url(#SVGID_00000163058186559930689620000018103616813286689676_);" d="M449.7,930.7c0.6,0,1.1-0.5,1.1-1.1
					c0.2-9.3,0.7-24.6,1.1-26.4c0.2-0.3,0.2-0.8,0-1.1c-0.3-0.5-1-0.7-1.5-0.3c-0.6,0.4-1.2,0.8-1.8,27.9
					C448.6,930.2,449.1,930.7,449.7,930.7L449.7,930.7z"/>
				
					<linearGradient id="SVGID_00000012430000358046105760000005159591076449425542_" gradientUnits="userSpaceOnUse" x1="-1531.5515" y1="894.2925" x2="-1602.1266" y2="996.8466" gradientTransform="matrix(-1 0 0 1 -1066.4536 0)">
					<stop  offset="0" style="stop-color:#09005D"/>
					<stop  offset="1" style="stop-color:#1A0F91"/>
				</linearGradient>
				<path style="fill:url(#SVGID_00000012430000358046105760000005159591076449425542_);" d="M479.9,933.2c1.2,0,2.1-0.9,2.2-2.1
					l1.5-28.2c0.1-1.2-0.9-2.3-2.1-2.3c-1.2-0.1-2.3,0.9-2.3,2.1l-1.5,28.2c-0.1,1.2,0.9,2.3,2.1,2.3
					C479.8,933.2,479.8,933.2,479.9,933.2z"/>
			</g>
		</g>
		<g>
			
				<linearGradient id="SVGID_00000155120580443492303180000001167976666443974295_" gradientUnits="userSpaceOnUse" x1="468.0306" y1="718.1846" x2="376.2487" y2="884.616" gradientTransform="matrix(0.9995 -3.073078e-02 3.073078e-02 0.9995 -43.8261 0.7101)">
				<stop  offset="0" style="stop-color:#FF928E"/>
				<stop  offset="1" style="stop-color:#FE7062"/>
			</linearGradient>
			<path style="fill:url(#SVGID_00000155120580443492303180000001167976666443974295_);" d="M496.1,838l-2.6-85.3
				c-0.3-11.2-9.6-20-20.8-19.8c-33.6,0.7-103,2.8-159.6,9.3c-7.7,0.9-13.6,7.4-13.6,15.2l-2.8,82.6c-0.1,10.9,8.8,19.8,19.8,19.6
				l160.7-1.9C487.9,857.6,496.4,848.7,496.1,838z"/>
			<path class="st10" d="M474.3,762.5c0.4,7.3,0.5,18.8,0.6,26.2c0,3.9-3.3,6.9-7.1,6.6l-27.8-2.4c-3.7-0.3-6.4-3.6-6-7.3l2.7-22.8
				c0.4-3.2,3.1-5.7,6.3-5.8l24.5-0.8C471.1,756.2,474.1,759,474.3,762.5z"/>
			<path class="st23" d="M403.3,807.7l-23,3.2c-3.2,0.4-6.1-2.1-5.9-5.4l2.9-68.8c9.7-0.6,19.2-1.1,28.4-1.6l2.1,67.3
				C407.8,805,405.9,807.3,403.3,807.7z"/>
			<path class="st10" d="M393.4,796.1c0,1.2-1,2.2-2.2,2.3c0,0-0.1,0-0.1,0c-1.3,0-2.3-1.1-2.3-2.4l1.6-60c1.6-0.1,3.1-0.2,4.7-0.3
				L393.4,796.1z"/>
			<g>
				
					<linearGradient id="SVGID_00000109003234858061665080000003629376171939859889_" gradientUnits="userSpaceOnUse" x1="-1539.3219" y1="775.2077" x2="-1588.8851" y2="847.2292" gradientTransform="matrix(-0.9995 3.073078e-02 3.073078e-02 0.9995 -1109.776 33.4831)">
					<stop  offset="0" style="stop-color:#09005D"/>
					<stop  offset="1" style="stop-color:#1A0F91"/>
				</linearGradient>
				<path style="fill:url(#SVGID_00000109003234858061665080000003629376171939859889_);" d="M462.1,784.6c0.4,0,0.7-0.3,0.8-0.7
					l0.6-18.9c0-0.4-0.3-0.8-0.7-0.8c-0.5,0-0.8,0.3-0.8,0.7l-0.6,18.9C461.3,784.2,461.7,784.5,462.1,784.6
					C462.1,784.6,462.1,784.6,462.1,784.6z"/>
				
					<linearGradient id="SVGID_00000183214103594185058610000005756050004851764891_" gradientUnits="userSpaceOnUse" x1="-1537.5398" y1="776.4341" x2="-1587.103" y2="848.4556" gradientTransform="matrix(-0.9995 3.073078e-02 3.073078e-02 0.9995 -1109.776 33.4831)">
					<stop  offset="0" style="stop-color:#09005D"/>
					<stop  offset="1" style="stop-color:#1A0F91"/>
				</linearGradient>
				<path style="fill:url(#SVGID_00000183214103594185058610000005756050004851764891_);" d="M459.7,784.6c0.4,0,0.8-0.4,0.8-0.8
					l0-19.3c0-0.4-0.3-0.8-0.8-0.8c-0.5,0-0.8,0.3-0.8,0.8l0,19.3C458.9,784.3,459.2,784.6,459.7,784.6
					C459.6,784.6,459.7,784.6,459.7,784.6z"/>
				
					<linearGradient id="SVGID_00000181088076932457213410000011937700329552760964_" gradientUnits="userSpaceOnUse" x1="-1535.3895" y1="777.9139" x2="-1584.9529" y2="849.9355" gradientTransform="matrix(-0.9995 3.073078e-02 3.073078e-02 0.9995 -1109.776 33.4831)">
					<stop  offset="0" style="stop-color:#09005D"/>
					<stop  offset="1" style="stop-color:#1A0F91"/>
				</linearGradient>
				<path style="fill:url(#SVGID_00000181088076932457213410000011937700329552760964_);" d="M456.3,784.7c-0.4,0-0.8-0.4-0.8-0.8
					c0.1-6.5,0.3-18.8,0.3-19.2c0-0.4,0.3-0.8,0.8-0.8c0.4,0,0.8,0.3,0.8,0.8c0,0.3-0.3,16.1-0.3,19.3
					C457.1,784.4,456.8,784.7,456.3,784.7C456.4,784.7,456.3,784.7,456.3,784.7z M455.9,764.7L455.9,764.7L455.9,764.7z"/>
				
					<linearGradient id="SVGID_00000030480811687697403150000005741401290256320687_" gradientUnits="userSpaceOnUse" x1="-1531.67" y1="780.4735" x2="-1581.2333" y2="852.495" gradientTransform="matrix(-0.9995 3.073078e-02 3.073078e-02 0.9995 -1109.776 33.4831)">
					<stop  offset="0" style="stop-color:#09005D"/>
					<stop  offset="1" style="stop-color:#1A0F91"/>
				</linearGradient>
				<path style="fill:url(#SVGID_00000030480811687697403150000005741401290256320687_);" d="M451.2,785.7c0.8,0,1.5-0.7,1.5-1.5
					c0.1-18.7,0-19.1-0.1-19.4c-0.2-0.8-1.1-1.3-1.9-1c-0.8,0.2-1.2,1-1.1,1.7c0.1,1.1,0.1,12,0,18.6
					C449.6,785,450.3,785.7,451.2,785.7C451.2,785.7,451.2,785.7,451.2,785.7z"/>
				
					<linearGradient id="SVGID_00000075884116554295690850000001710508166947042737_" gradientUnits="userSpaceOnUse" x1="-1529.2177" y1="782.1612" x2="-1578.781" y2="854.1827" gradientTransform="matrix(-0.9995 3.073078e-02 3.073078e-02 0.9995 -1109.776 33.4831)">
					<stop  offset="0" style="stop-color:#09005D"/>
					<stop  offset="1" style="stop-color:#1A0F91"/>
				</linearGradient>
				<path style="fill:url(#SVGID_00000075884116554295690850000001710508166947042737_);" d="M447.8,785c0.4,0,0.8-0.4,0.8-0.8
					l-0.6-18.9c0-0.4-0.4-0.8-0.8-0.8c-0.4,0-0.8,0.4-0.8,0.8l0.6,18.9C447.1,784.7,447.4,785,447.8,785z"/>
				
					<linearGradient id="SVGID_00000024689114692326572500000002437384028434773914_" gradientUnits="userSpaceOnUse" x1="-1527.6951" y1="783.209" x2="-1577.2582" y2="855.2302" gradientTransform="matrix(-0.9995 3.073078e-02 3.073078e-02 0.9995 -1109.776 33.4831)">
					<stop  offset="0" style="stop-color:#09005D"/>
					<stop  offset="1" style="stop-color:#1A0F91"/>
				</linearGradient>
				<path style="fill:url(#SVGID_00000024689114692326572500000002437384028434773914_);" d="M445.1,785.1c0.4,0,0.8-0.4,0.8-0.8
					c-0.1-6.6,0-17.3,0.2-18.6c0.1-0.2,0.1-0.6-0.1-0.8c-0.2-0.4-0.7-0.4-1.1-0.2c-0.4,0.3-0.8,0.6-0.7,19.6
					C444.3,784.7,444.7,785.1,445.1,785.1L445.1,785.1z"/>
				
					<linearGradient id="SVGID_00000168816624805267996260000013111840438294163840_" gradientUnits="userSpaceOnUse" x1="-1541.8721" y1="773.4528" x2="-1591.4354" y2="845.4743" gradientTransform="matrix(-0.9995 3.073078e-02 3.073078e-02 0.9995 -1109.776 33.4831)">
					<stop  offset="0" style="stop-color:#09005D"/>
					<stop  offset="1" style="stop-color:#1A0F91"/>
				</linearGradient>
				<path style="fill:url(#SVGID_00000168816624805267996260000013111840438294163840_);" d="M466.4,786.2c0.8,0,1.5-0.7,1.5-1.5
					l0.4-19.9c0-0.9-0.7-1.6-1.5-1.6c-0.8,0-1.6,0.7-1.6,1.5l-0.4,19.9C464.7,785.4,465.4,786.1,466.4,786.2
					C466.3,786.2,466.3,786.2,466.4,786.2z"/>
			</g>
		</g>
		<g>
			
				<linearGradient id="SVGID_00000024714161777498107070000016455146990220287402_" gradientUnits="userSpaceOnUse" x1="373.9138" y1="897.8029" x2="223.3912" y2="1042.2068">
				<stop  offset="0" style="stop-color:#FF928E"/>
				<stop  offset="1" style="stop-color:#FE7062"/>
			</linearGradient>
			<path style="fill:url(#SVGID_00000024714161777498107070000016455146990220287402_);" d="M378.5,1016v-85.3
				c0-11.2-7.8-20.3-17.5-20.5c-29.1-0.4-89-0.4-138.1,4.4c-6.7,0.7-11.9,7-12.1,14.8l-4.6,82.5c-0.3,10.9,7.1,20,16.5,20.2
				l138.9,3.1C370.8,1035.4,378.5,1026.8,378.5,1016z"/>
			<path class="st10" d="M361.6,940c0.1,7.3-0.1,18.8-0.2,26.2c-0.1,3.9-3,6.8-6.3,6.4l-23.9-3.2c-3.2-0.4-5.4-3.8-5-7.5l2.9-22.7
				c0.4-3.2,2.8-5.6,5.6-5.6h21.2C359,933.5,361.6,936.4,361.6,940z"/>
			<path class="st23" d="M299.1,982.9l-20,2.5c-2.8,0.3-5.2-2.3-5-5.6l4.4-68.7c8.4-0.3,16.6-0.5,24.6-0.7v67.3
				C303.1,980.4,301.4,982.6,299.1,982.9z"/>
			<path class="st10" d="M290.9,971c-0.1,1.2-0.9,2.2-2,2.2c0,0-0.1,0-0.1,0c-1.1-0.1-2-1.2-1.9-2.5l3-60c1.3,0,2.7-0.1,4-0.1
				L290.9,971z"/>
			<g>
				
					<linearGradient id="SVGID_00000126302420010514345030000018388680094658035371_" gradientUnits="userSpaceOnUse" x1="-1408.1428" y1="937.7474" x2="-1457.7888" y2="1009.8893" gradientTransform="matrix(-1 0 0 1 -1066.4536 0)">
					<stop  offset="0" style="stop-color:#09005D"/>
					<stop  offset="1" style="stop-color:#1A0F91"/>
				</linearGradient>
				<path style="fill:url(#SVGID_00000126302420010514345030000018388680094658035371_);" d="M350.6,961.6c0.4,0,0.6-0.3,0.7-0.7
					l1-18.9c0-0.4-0.3-0.8-0.6-0.8c-0.4,0-0.7,0.3-0.7,0.7l-1,18.9C349.9,961.2,350.1,961.6,350.6,961.6
					C350.5,961.6,350.5,961.6,350.6,961.6z"/>
				
					<linearGradient id="SVGID_00000075851654047301724190000010608210799965249703_" gradientUnits="userSpaceOnUse" x1="-1406.7588" y1="939.0098" x2="-1456.2706" y2="1010.9566" gradientTransform="matrix(-1 0 0 1 -1066.4536 0)">
					<stop  offset="0" style="stop-color:#09005D"/>
					<stop  offset="1" style="stop-color:#1A0F91"/>
				</linearGradient>
				<path style="fill:url(#SVGID_00000075851654047301724190000010608210799965249703_);" d="M348.4,961.6c0.4,0,0.7-0.3,0.7-0.7
					l0.5-19.2c0-0.4-0.3-0.8-0.6-0.8c-0.4,0-0.7,0.3-0.7,0.7l-0.5,19.2C347.7,961.2,348,961.6,348.4,961.6
					C348.4,961.6,348.4,961.6,348.4,961.6z"/>
				
					<linearGradient id="SVGID_00000080908592255660663630000018171017234014097281_" gradientUnits="userSpaceOnUse" x1="-1405.0272" y1="940.4728" x2="-1454.606" y2="1012.5168" gradientTransform="matrix(-1 0 0 1 -1066.4536 0)">
					<stop  offset="0" style="stop-color:#09005D"/>
					<stop  offset="1" style="stop-color:#1A0F91"/>
				</linearGradient>
				<path style="fill:url(#SVGID_00000080908592255660663630000018171017234014097281_);" d="M345.5,961.6c-0.4,0-0.7-0.4-0.6-0.8
					c0.3-6.5,0.8-18.8,0.8-19.2c0-0.4,0.3-0.8,0.7-0.8c0.4,0,0.7,0.3,0.7,0.8c0,0.3-0.7,16.1-0.8,19.3
					C346.2,961.3,345.9,961.6,345.5,961.6C345.6,961.6,345.5,961.6,345.5,961.6z M345.7,941.6L345.7,941.6L345.7,941.6z"/>
				
					<linearGradient id="SVGID_00000152229230097803716140000001271343340006435254_" gradientUnits="userSpaceOnUse" x1="-1402.0652" y1="943.0762" x2="-1451.3888" y2="1014.7495" gradientTransform="matrix(-1 0 0 1 -1066.4536 0)">
					<stop  offset="0" style="stop-color:#09005D"/>
					<stop  offset="1" style="stop-color:#1A0F91"/>
				</linearGradient>
				<path style="fill:url(#SVGID_00000152229230097803716140000001271343340006435254_);" d="M341.1,962.4c0.7,0,1.3-0.7,1.3-1.5
					c0.6-18.6,0.5-19.1,0.4-19.3c-0.2-0.8-0.9-1.3-1.6-1.1c-0.7,0.2-1.1,0.9-1,1.7c0,1.1-0.3,12-0.5,18.6
					C339.7,961.6,340.3,962.3,341.1,962.4C341.1,962.4,341.1,962.4,341.1,962.4z"/>
				
					<linearGradient id="SVGID_00000062158262311286164820000009113292450371062688_" gradientUnits="userSpaceOnUse" x1="-1400.0929" y1="944.7485" x2="-1449.4698" y2="1016.4993" gradientTransform="matrix(-1 0 0 1 -1066.4536 0)">
					<stop  offset="0" style="stop-color:#09005D"/>
					<stop  offset="1" style="stop-color:#1A0F91"/>
				</linearGradient>
				<path style="fill:url(#SVGID_00000062158262311286164820000009113292450371062688_);" d="M338.2,961.6c0.4,0,0.7-0.3,0.7-0.8
					v-18.9c0-0.4-0.3-0.8-0.7-0.8c-0.4,0-0.7,0.3-0.7,0.8v18.9C337.5,961.2,337.8,961.6,338.2,961.6z"/>
				
					<linearGradient id="SVGID_00000176012516813048221200000004187594366924138920_" gradientUnits="userSpaceOnUse" x1="-1398.859" y1="945.7699" x2="-1448.4359" y2="1017.8113" gradientTransform="matrix(-1 0 0 1 -1066.4536 0)">
					<stop  offset="0" style="stop-color:#09005D"/>
					<stop  offset="1" style="stop-color:#1A0F91"/>
				</linearGradient>
				<path style="fill:url(#SVGID_00000176012516813048221200000004187594366924138920_);" d="M335.9,961.6c0.4,0,0.7-0.3,0.7-0.8
					c0.1-6.6,0.4-17.3,0.7-18.6c0.1-0.2,0.1-0.6,0-0.8c-0.2-0.4-0.6-0.5-0.9-0.2c-0.4,0.3-0.7,0.5-1.1,19.6
					C335.2,961.2,335.5,961.6,335.9,961.6L335.9,961.6z"/>
				
					<linearGradient id="SVGID_00000022530759491482036580000016098025820275383968_" gradientUnits="userSpaceOnUse" x1="-1410.1813" y1="936.0546" x2="-1459.6193" y2="1007.894" gradientTransform="matrix(-1 0 0 1 -1066.4536 0)">
					<stop  offset="0" style="stop-color:#09005D"/>
					<stop  offset="1" style="stop-color:#1A0F91"/>
				</linearGradient>
				<path style="fill:url(#SVGID_00000022530759491482036580000016098025820275383968_);" d="M354.2,963.3c0.7,0,1.3-0.6,1.3-1.5
					l0.9-19.8c0-0.9-0.5-1.6-1.3-1.6c-0.7-0.1-1.4,0.6-1.4,1.5l-0.9,19.8C352.8,962.5,353.3,963.3,354.2,963.3
					C354.1,963.3,354.1,963.3,354.2,963.3z"/>
			</g>
		</g>
	</g>
</g>
</svg>
